<svg width="185" height="47" xmlns="http://www.w3.org/2000/svg" xmlns:xlink="http://www.w3.org/1999/xlink" xml:space="preserve" overflow="hidden"><defs><clipPath id="clip0"><rect x="506" y="832" width="185" height="47"/></clipPath></defs><g clip-path="url(#clip0)" transform="translate(-506 -832)"><path d="M54.6296 34.3273C54.5057 34.3273 54.4809 34.3273 54.39 34.1786 54.2579 33.9721 54.0844 33.8069 53.9358 33.6582 53.8449 33.5674 53.7458 33.4765 53.6632 33.3774 53.4732 33.1379 53.2502 32.9231 53.0355 32.7001L52.7629 32.4275C52.6555 32.3119 52.5399 32.2045 52.4242 32.0889 52.3003 31.965 52.1682 31.8411 52.0443 31.7089 51.4579 31.0729 50.8549 30.4535 50.2519 29.8423L49.3021 28.8676C49.013 28.562 48.7239 28.2647 48.4183 27.9756 48.377 27.9343 48.3687 27.893 48.3687 27.6947L48.3687 9.87859C48.3687 9.02784 48.1705 8.82961 47.3198 8.82961L46.5268 8.82961C46.3864 8.82961 46.2377 8.82961 46.0973 8.82961 46.0973 5.99653 46.0973 3.21302 46.0973 0.421244 48.3027 0.421244 50.4667 0.421244 52.6307 0.421244 54.7948 0.421244 56.9919 0.421244 59.1724 0.421244L59.1724 7.8467C59.1724 8.17709 59.1724 8.49922 59.1724 8.82961 59.1063 8.82961 59.0403 8.82961 58.9824 8.82961L58.5364 8.82961C58.0078 8.84613 57.6691 9.18477 57.6691 9.71339L57.6691 13.5046C57.6691 17.2793 57.6691 21.0622 57.6691 24.8369 57.6691 25.2251 57.7104 25.5224 57.9252 25.7372 58.1399 25.9519 58.4373 25.9685 58.6933 25.9685L58.8007 25.9685C59.3459 25.9602 59.891 25.9519 60.4361 25.9519 61.0639 25.9519 61.6999 25.9519 62.3276 25.9685L62.3276 25.9685C62.5341 25.9685 62.7984 25.9437 62.9884 25.7454 63.1866 25.5472 63.2114 25.2829 63.2114 25.0929 63.2114 21.5743 63.2114 18.0474 63.2114 14.5288L63.2114 9.76295C63.2114 9.13522 62.914 8.84613 62.2781 8.82961 62.2285 8.82961 62.1872 8.82961 62.1376 8.82961 62.0303 8.82961 61.9229 8.83787 61.8155 8.85439 61.7412 8.86265 61.6668 8.8709 61.6008 8.8709 61.5595 8.85439 61.576 8.68093 61.5925 8.57356 61.609 8.45792 61.6173 8.34229 61.6173 8.22665L61.6173 5.42662C61.6173 3.77468 61.6173 2.12274 61.609 0.470802 61.609 0.454283 61.609 0.429504 61.609 0.421244 61.6173 0.421244 61.6338 0.421244 61.6503 0.421244 63.8722 0.429504 66.0775 0.429504 68.2911 0.429504 70.5047 0.429504 72.6605 0.429504 74.841 0.421244 74.8493 0.421244 74.8576 0.421244 74.8658 0.421244 74.8658 0.429504 74.8658 0.446023 74.8658 0.454283 74.8576 3.24606 74.8493 6.04609 74.8658 8.83787L74.8658 8.83787C74.6841 8.82961 74.5107 8.82961 74.3289 8.82961L73.6351 8.82961C73.6351 8.82961 73.3791 8.82961 73.3791 8.82961 73.1313 8.82961 72.9496 8.89569 72.8174 9.02784 72.6853 9.16 72.6192 9.34171 72.6192 9.56472L72.6192 13.3807C72.6192 18.0474 72.6192 22.7141 72.6274 27.3809 72.6274 27.703 72.5531 27.9177 72.3714 28.0829 71.7106 28.6942 71.0994 29.3632 70.5047 30.0075 70.0339 30.5196 69.5466 31.0482 69.051 31.5437 68.382 32.1963 67.7542 32.8983 67.143 33.5756L66.54 34.2447C66.4905 34.3025 66.4492 34.3273 66.3005 34.3273L60.6344 34.3273C58.6355 34.3273 56.6367 34.3273 54.6296 34.3273L54.6296 34.3273Z" fill="#023047" transform="matrix(1.00611 0 0 1 506 832.117)"/><path d="M62.0137 0.825969C64.1034 0.825969 66.1931 0.834229 68.2828 0.834229 70.3725 0.834229 72.3714 0.834229 74.4446 0.834229 74.4363 3.55993 74.4363 6.03783 74.4446 8.41662 74.4033 8.41662 74.362 8.41662 74.3207 8.41662L73.9655 8.41662C73.9655 8.41662 73.6269 8.41662 73.6269 8.41662 73.5443 8.41662 73.4617 8.41662 73.3543 8.41662 72.9331 8.41662 72.6687 8.59008 72.5201 8.73875 72.3714 8.88743 72.1979 9.15174 72.2062 9.57298L72.2062 9.79599C72.2062 9.79599 72.2062 9.94466 72.2062 9.94466L72.2062 13.3394C72.2062 18.0226 72.2062 22.7059 72.2145 27.3891 72.2145 27.6782 72.1401 27.7443 72.0906 27.7856 71.4133 28.4051 70.8021 29.0824 70.1991 29.7349 69.7365 30.2387 69.2492 30.7673 68.7619 31.2547 68.0846 31.9154 67.4486 32.6258 66.8374 33.3031 66.6557 33.5096 66.4657 33.716 66.284 33.9225 64.4008 33.9225 62.5176 33.9225 60.6261 33.9225 58.7346 33.9225 56.6945 33.9225 54.7039 33.9225 54.547 33.6913 54.3735 33.5178 54.2083 33.3691 54.1175 33.2865 54.0349 33.2039 53.9771 33.1296 53.7706 32.8653 53.5393 32.6423 53.3245 32.4193 53.2337 32.3284 53.1511 32.2376 53.0602 32.1467 52.9446 32.0311 52.829 31.9154 52.7133 31.7998 52.5894 31.6842 52.4655 31.5603 52.3499 31.4364 51.7552 30.7921 51.144 30.1644 50.5493 29.5532L49.905 28.8924 49.6077 28.5868C49.3351 28.306 49.0708 28.0251 48.79 27.7526 48.79 27.736 48.79 27.7195 48.79 27.6947L48.79 27.6534C48.79 27.6534 48.79 27.6534 48.79 27.6534L48.79 21.6982C48.79 21.6982 48.79 18.766 48.79 18.766L48.79 16.4368C48.79 16.4368 48.79 9.87859 48.79 9.87859 48.79 8.79657 48.41 8.41662 47.328 8.41662L46.9563 8.41662C46.9563 8.41662 46.5433 8.41662 46.5433 8.41662L46.5186 8.41662C46.5186 5.88916 46.5186 3.36995 46.5186 0.842488 48.5587 0.842488 50.5989 0.842488 52.639 0.842488 54.6791 0.842488 56.7193 0.842488 58.7677 0.842488L58.7677 5.99653C58.7677 5.99653 58.7677 7.40068 58.7677 7.40068L58.7677 7.85496C58.7677 8.04494 58.7677 8.23491 58.7677 8.42488 58.7181 8.42488 58.6768 8.42488 58.6273 8.42488L58.5364 8.42488C57.7765 8.4414 57.2644 8.9535 57.2562 9.70513L57.2562 9.91989C57.2562 9.91989 57.2562 13.4798 57.2562 13.4798 57.2562 17.2627 57.2562 21.0457 57.2562 24.8286 57.2562 25.2499 57.2975 25.6876 57.6278 26.018 57.983 26.3732 58.4621 26.3732 58.6851 26.3732L58.8007 26.3732C59.3459 26.3649 59.891 26.3567 60.4361 26.3567 61.0639 26.3567 61.6916 26.3567 62.3441 26.3732 62.4928 26.3732 62.9388 26.3732 63.2775 26.0345 63.6161 25.6876 63.6161 25.2416 63.6161 25.0929 63.6161 21.5165 63.6161 17.9483 63.6161 14.3719L63.6161 9.76295C63.6161 8.9122 63.1371 8.43314 62.2781 8.41662L62.2781 8.41662C62.2285 8.41662 62.1789 8.41662 62.1294 8.41662 62.0881 8.41662 62.055 8.41662 62.0137 8.41662 62.0137 8.35054 62.022 8.28447 62.022 8.22665 62.022 7.30156 62.022 6.36822 62.022 5.44313 62.022 3.90683 62.022 2.37053 62.022 0.834229M61.6338 0C61.2539 0 61.1795 0.115636 61.1795 0.470802 61.196 3.05608 61.1795 5.64137 61.1878 8.21839 61.1878 8.54052 61.0556 8.9535 61.2456 9.16 61.3282 9.25085 61.4521 9.27563 61.5842 9.27563 61.7577 9.27563 61.9477 9.23433 62.1211 9.23433 62.1542 9.23433 62.1789 9.23433 62.212 9.23433 62.212 9.23433 62.2202 9.23433 62.2285 9.23433 62.2285 9.23433 62.245 9.23433 62.2533 9.23433L62.2533 9.23433C62.6663 9.23433 62.7819 9.34997 62.7819 9.75469 62.7819 14.8674 62.7819 19.9802 62.7819 25.0929 62.7819 25.4481 62.658 25.5472 62.3276 25.5472L62.3111 25.5472C61.6834 25.5472 61.0474 25.5307 60.4196 25.5307 59.8662 25.5307 59.3211 25.5307 58.7677 25.5472 58.7346 25.5472 58.7016 25.5472 58.6686 25.5472 58.1895 25.5472 58.0574 25.4646 58.0574 24.8286 58.0574 19.8563 58.0574 14.884 58.0574 9.91163 58.0574 9.84555 58.0574 9.77121 58.0574 9.70513 58.0574 9.39953 58.2225 9.24259 58.5199 9.24259 58.6686 9.24259 58.8172 9.24259 58.9577 9.24259 59.065 9.24259 59.1724 9.24259 59.2715 9.24259 59.288 9.24259 59.2963 9.24259 59.3128 9.24259 59.5028 9.24259 59.5689 9.15174 59.5606 8.9535 59.5524 8.43314 59.5606 7.91278 59.5606 7.39242 59.5606 5.07145 59.5606 2.75874 59.5606 0.437763 59.5606 0.223012 59.6184 2.38423e-15 59.2467 2.38423e-15L59.2467 2.38423e-15C57.0332 2.38423e-15 54.8196 2.38423e-15 52.6142 2.38423e-15 50.4089 2.38423e-15 48.187 2.38423e-15 45.9817 2.38423e-15L45.9817 2.38423e-15C45.7422 2.38423e-15 45.6761 0.0743372 45.6761 0.313868 45.6761 3.1965 45.6761 6.07087 45.6761 8.9535 45.6761 9.16 45.7339 9.24259 45.9321 9.24259 45.9321 9.24259 45.9487 9.24259 45.9569 9.24259 46.1469 9.24259 46.3286 9.24259 46.5186 9.24259 46.7829 9.24259 47.0389 9.24259 47.3032 9.24259 47.931 9.24259 47.9392 9.25085 47.9392 9.87859 47.9392 12.8438 47.9392 15.8008 47.9392 18.766 47.9392 21.7312 47.9392 24.6882 47.9392 27.6534 47.9392 27.8764 47.9227 28.0912 48.1127 28.2729 48.5174 28.6611 48.8974 29.0658 49.2856 29.4706 50.1033 30.3131 50.9292 31.139 51.7222 31.998 51.9534 32.2458 52.2095 32.4771 52.4408 32.7166 52.7381 33.0222 53.052 33.3113 53.3163 33.6417 53.531 33.9143 53.8367 34.1125 54.0184 34.4016 54.1753 34.6494 54.324 34.7485 54.6131 34.7485L54.6131 34.7485C56.6119 34.7485 58.6107 34.7485 60.6096 34.7485 62.5011 34.7485 64.3925 34.7485 66.284 34.7485L66.284 34.7485C66.507 34.7485 66.6722 34.699 66.8291 34.5255 67.6551 33.6252 68.448 32.7001 69.3236 31.8411 70.4634 30.726 71.4628 29.4788 72.6357 28.3885 72.9165 28.1325 73.0239 27.7939 73.0239 27.3809 73.0074 21.566 73.0156 15.7512 73.0156 9.93641 73.0156 9.81251 73.0156 9.68036 73.0156 9.55646 73.0156 9.33345 73.1148 9.23433 73.3378 9.23433L73.3543 9.23433C73.4369 9.23433 73.5277 9.23433 73.6103 9.23433 73.8416 9.23433 74.0729 9.23433 74.3042 9.23433 74.4776 9.23433 74.6511 9.23433 74.8245 9.24259 74.8493 9.24259 74.8741 9.24259 74.8906 9.24259 75.1549 9.24259 75.254 9.15174 75.254 8.82961 75.2375 6.03783 75.2375 3.2378 75.254 0.446023 75.254 0.107376 75.1797-0.00825969 74.8163-0.00825969L74.8163-0.00825969C72.6357-0.00825969 70.4469 2.19366e-15 68.2663 2.19366e-15 66.0858 2.19366e-15 63.8391 2.19366e-15 61.6338-0.00825969L61.6338-0.00825969Z" fill="#C5960C" transform="matrix(1.00611 0 0 1 506 832.117)"/><path d="M0.79293 34.3273C0.79293 31.4859 0.79293 28.7189 0.79293 25.9519 0.958124 25.9519 1.89973 25.9519 1.89973 25.9519 2.06492 25.9519 2.23012 25.9519 2.39531 25.9602L2.40357 25.9602C2.7257 25.9602 2.92393 25.8859 3.06434 25.7289 3.27084 25.4894 3.2378 25.1838 3.22128 25.0847L3.22128 9.88685C3.22128 9.15174 3.03957 8.96176 2.31271 8.96176L1.41241 8.96176C1.20591 8.96176 0.999422 8.96176 0.80119 8.96176 0.80119 6.07913 0.80119 3.25432 0.80119 0.429504L19.592 0.429504C22.2103 0.429504 24.8286 0.429504 27.4469 0.429504 27.4552 0.429504 27.4635 0.429504 27.48 0.429504L27.48 0.446023C27.4635 3.97291 27.4717 7.4998 27.48 11.0184 25.8611 11.0184 24.3083 11.0184 22.7637 11.0184 21.2191 11.0184 19.6333 11.0184 18.0722 11.0267 18.0887 10.7789 18.0805 10.5394 18.0722 10.2916 18.0722 10.1099 18.0722 9.91989 18.0722 9.73817 18.0805 9.4656 18.0061 9.24259 17.8492 9.0774 17.7418 8.97002 17.5518 8.83787 17.2215 8.83787 16.6185 8.83787 16.0238 8.83787 15.4208 8.83787L13.4633 8.83787C13.1577 8.83787 12.9677 8.96176 12.8686 9.06914 12.7117 9.22607 12.6373 9.44082 12.6373 9.71339 12.6373 10.3246 12.6373 12.9595 12.6373 12.9595 12.6373 13.6367 12.9099 13.9011 13.5954 13.9011L17.6675 13.9011C18.576 13.9011 19.4763 13.9011 20.3849 13.9011L20.3849 13.9011C20.3684 16.5524 20.3684 19.212 20.3849 21.8634 20.3849 21.8799 20.3849 21.9047 20.3849 21.913 20.3849 21.913 20.3684 21.913 20.3601 21.913 19.2368 21.9047 18.1218 21.8964 17.0067 21.8964L13.6367 21.8964C12.819 21.8964 12.6291 22.0864 12.6291 22.9206L12.6291 23.5649C12.6291 24.0935 12.6373 24.6139 12.6291 25.1342 12.6291 25.2333 12.6208 25.539 12.8273 25.7537 13.0338 25.9685 13.3229 25.9685 13.422 25.9685 13.6037 25.9685 13.7276 25.9685 13.8598 25.9685L14.4792 25.9685C14.5949 25.9685 14.7105 25.9685 14.8261 25.9685 14.8261 28.7933 14.8261 31.5685 14.8261 34.3438 12.4886 34.3438 10.209 34.3438 7.9293 34.3438 5.64963 34.3438 3.17172 34.3438 0.79293 34.3438Z" fill="#023047" transform="matrix(1.00611 0 0 1 506 832.117)"/><path d="M27.0505 0.825969C27.0422 3.75816 27.0422 6.95466 27.0505 10.5972 25.6133 10.5972 24.1678 10.5972 22.7307 10.5972 21.2935 10.5972 19.9141 10.5972 18.4852 10.5972 18.4852 10.4898 18.4852 10.3824 18.4852 10.2751 18.4852 10.1016 18.4852 9.91989 18.4852 9.73817 18.5017 9.25085 18.3117 8.9535 18.1465 8.78005 17.9896 8.61486 17.6923 8.41662 17.2215 8.40836 16.6268 8.40836 16.0238 8.40836 15.4291 8.40836L13.4716 8.40836C13.0255 8.40836 12.7364 8.59834 12.5795 8.75527 12.4226 8.92046 12.2243 9.20955 12.2326 9.68861 12.2326 10.2916 12.2326 10.8863 12.2326 11.4892 12.2326 11.9683 12.2326 12.4556 12.2326 12.9347 12.2326 13.8432 12.6869 14.2893 13.6037 14.2893L14.8096 14.2893C15.7595 14.2893 16.7094 14.2893 17.6592 14.2893 18.4356 14.2893 19.2038 14.2893 19.9719 14.2893 19.9637 16.7424 19.9637 19.1625 19.9719 21.4752 18.989 21.4752 18.0061 21.4669 17.0315 21.4669L15.2061 21.4669C15.2061 21.4669 13.6533 21.4669 13.6533 21.4669 12.6043 21.4669 12.2326 21.8386 12.2326 22.8959L12.2326 23.5484C12.2326 24.0687 12.2409 24.5891 12.2326 25.1012 12.2243 25.4811 12.3317 25.795 12.5465 26.018 12.7612 26.241 13.0668 26.3567 13.4385 26.3567L13.4881 26.3567C13.4881 26.3567 13.4963 26.3567 13.4963 26.3567 13.6202 26.3567 13.7441 26.3567 13.8763 26.3567L14.1819 26.3567C14.1819 26.3567 14.4297 26.3567 14.4297 26.3567 14.4297 28.8676 14.4297 31.3868 14.4297 33.906 12.2656 33.906 10.1099 33.906 7.94582 33.906 5.78178 33.906 3.46907 33.906 1.22243 33.906 1.22243 31.2216 1.22243 28.7437 1.22243 26.3567L1.56934 26.3567C1.56934 26.3567 1.91625 26.3567 1.91625 26.3567 2.07318 26.3567 2.23838 26.3567 2.39531 26.3649L2.47791 26.3649C2.95697 26.3649 3.2378 26.1667 3.38647 25.9932 3.60948 25.7454 3.69208 25.4233 3.65078 25.0351L3.65078 24.9525C3.65078 24.9525 3.65078 22.7967 3.65078 22.7967L3.65078 9.87033C3.65078 8.90394 3.2791 8.53226 2.32923 8.53226L1.93277 8.53226C1.93277 8.53226 1.42893 8.53226 1.42893 8.53226 1.36285 8.53226 1.28851 8.53226 1.22243 8.53226 1.22243 5.50921 1.22243 3.08912 1.22243 0.834229L8.83787 0.834229C8.83787 0.834229 11.514 0.834229 11.514 0.834229L16.8415 0.834229C16.8415 0.834229 19.4929 0.834229 19.4929 0.834229 22.0203 0.834229 24.5478 0.834229 27.0753 0.834229M27.4387 0 27.4387 0C24.7873 0 22.1277 0.00825969 19.4763 0.00825969 17.7088 0.00825969 15.9412 0.00825969 14.1736 0.00825969L8.82961 0.00825969C6.16173 0.00825969 3.50211 0.00825969 0.850748 0.00825969 0.78467 0.00825969 0.726853 0.00825969 0.660775 0.00825969 0.503841 0 0.371686 0.0495581 0.371686 0.338647 0.388205 3.22954 0.379946 6.12869 0.371686 9.01958 0.371686 9.29215 0.470802 9.37475 0.710333 9.37475 0.718593 9.37475 0.735112 9.37475 0.743372 9.37475 0.966384 9.37475 1.18114 9.37475 1.40415 9.37475 1.7015 9.37475 1.99884 9.37475 2.30445 9.37475 2.63484 9.37475 2.80003 9.54547 2.80003 9.88685 2.80003 14.917 2.80003 19.9389 2.80003 24.969 2.80003 25.0269 2.80003 25.0847 2.80003 25.1342 2.83307 25.4233 2.73396 25.5472 2.45313 25.5472 2.43661 25.5472 2.42009 25.5472 2.40357 25.5472 2.23012 25.5472 2.06492 25.539 1.89147 25.539 1.65194 25.539 1.42067 25.539 1.18114 25.539 1.04072 25.539 0.900306 25.539 0.759891 25.539 0.743372 25.539 0.735112 25.539 0.718593 25.539 0.462543 25.539 0.371686 25.6216 0.371686 25.9106 0.379946 28.7355 0.379946 31.5603 0.371686 34.3768 0.371686 34.6494 0.437763 34.7402 0.718593 34.7402L0.718593 34.7402C3.12216 34.7402 5.51747 34.7402 7.92104 34.7402 10.3246 34.7402 12.5878 34.7402 14.917 34.7402L14.917 34.7402C15.1483 34.7402 15.2309 34.6824 15.2309 34.4429 15.2309 31.5768 15.2309 28.7107 15.2309 25.8446 15.2309 25.6216 15.173 25.5307 14.9583 25.5307 14.95 25.5307 14.9335 25.5307 14.9253 25.5307 14.7766 25.5307 14.6279 25.5307 14.4792 25.5307 14.2727 25.5307 14.058 25.5307 13.8515 25.5307 13.7193 25.5307 13.5872 25.5307 13.4468 25.5307 13.4303 25.5307 13.422 25.5307 13.4137 25.5307 13.1412 25.5307 13.0255 25.4398 13.0338 25.126 13.0586 24.3826 13.0338 23.6392 13.0338 22.8959 13.0338 22.2929 13.0338 22.2929 13.6285 22.2929 14.7518 22.2929 15.8834 22.2929 17.0067 22.2929 18.13 22.2929 19.2203 22.2929 20.3271 22.3094L20.3436 22.3094C20.7153 22.3094 20.7814 22.1938 20.7814 21.8386 20.7649 19.1873 20.7649 16.5276 20.7814 13.8763 20.7814 13.5459 20.6905 13.4633 20.3767 13.4633L20.3684 13.4633C19.4598 13.4633 18.5513 13.4633 17.6427 13.4633 16.2881 13.4633 14.9418 13.4633 13.5872 13.4633 13.1246 13.4633 13.042 13.3807 13.0338 12.9347 13.0338 11.8527 13.0338 10.7706 13.0338 9.68861 13.0338 9.39953 13.1494 9.23433 13.4468 9.23433 14.0993 9.23433 14.7518 9.23433 15.4043 9.23433 15.999 9.23433 16.602 9.23433 17.1967 9.23433 17.494 9.23433 17.651 9.39127 17.6344 9.70513 17.6179 10.1429 17.651 10.5807 17.6262 11.0102 17.6097 11.3158 17.684 11.4149 18.0061 11.4149L18.0061 11.4149C19.5755 11.4149 21.1365 11.4066 22.7059 11.4066 24.2752 11.4066 25.8941 11.4066 27.4882 11.4149L27.4882 11.4149C27.7856 11.4149 27.8517 11.3323 27.8517 11.0432 27.8434 7.50806 27.8352 3.96465 27.8517 0.429504 27.8517 0.0743372 27.7526-1.83402e-15 27.4139-1.83402e-15L27.4139-1.83402e-15Z" fill="#C5960C" transform="matrix(1.00611 0 0 1 506 832.117)"/><path d="M29.7349 34.3355C29.7431 31.5437 29.7431 28.752 29.7349 25.9602L29.7349 25.9602C29.9083 25.9602 30.09 25.9602 30.2718 25.9602L30.9904 25.9602C31.0895 25.9602 31.296 25.9602 31.296 25.9602 31.5851 25.9602 31.775 25.8859 31.9154 25.7537 32.1054 25.5555 32.1302 25.2994 32.1302 25.126 32.1302 24.1018 32.1302 23.0776 32.1302 22.0534L32.1302 9.87859C32.1302 9.08566 31.8824 8.82961 31.0977 8.82961L30.2883 8.82961C30.1066 8.82961 29.9331 8.82961 29.7514 8.82961 29.7514 6.00479 29.7514 3.21302 29.7514 0.421244L42.7108 0.421244C42.7108 0.421244 43.3716 0.421244 43.3716 0.421244 43.5038 0.421244 43.6359 0.421244 43.7681 0.412984 43.7681 1.22243 43.7681 1.95755 43.7681 2.69266L43.7681 4.93929C43.7681 6.22781 43.7681 7.51632 43.7763 8.80483L43.7763 8.82961 43.7763 8.82961C43.5946 8.81309 43.4047 8.81309 43.223 8.81309 43.066 8.81309 42.4796 8.82135 42.4796 8.82135 41.8105 8.82135 41.538 9.11044 41.538 9.77947L41.538 25.0269C41.538 25.7537 41.7279 25.9437 42.4631 25.9519L43.256 25.9519C43.4294 25.9519 43.6029 25.9519 43.7763 25.9519 43.7763 26.9018 43.7763 27.7856 43.7763 28.6611L43.7763 30.8499C43.7763 32.0146 43.7763 33.1709 43.7763 34.3273 41.4471 34.3273 39.1179 34.319 36.7969 34.319 34.4759 34.319 32.1054 34.319 29.7597 34.3273Z" fill="#023047" transform="matrix(1.00611 0 0 1 506 832.117)"/><path d="M34.0795 0.834229 42.7026 0.834229C42.81 0.834229 42.9173 0.834229 43.0165 0.834229 43.1238 0.834229 43.2395 0.834229 43.3468 0.834229 43.3468 1.45371 43.3468 2.08144 43.3468 2.70092L43.3468 3.57645C43.3468 3.57645 43.3468 4.93929 43.3468 4.93929 43.3468 6.09565 43.3468 7.24375 43.3468 8.4001 43.2973 8.4001 43.2477 8.4001 43.1982 8.4001 43.0412 8.4001 42.8843 8.4001 42.7274 8.4001L42.4548 8.4001C41.5545 8.41662 41.1002 8.87917 41.1002 9.77947L41.1002 15.4126C41.1002 15.4126 41.1002 17.4527 41.1002 17.4527L41.1002 19.4185C41.1002 19.4185 41.1002 25.0351 41.1002 25.0351 41.1002 25.9932 41.4719 26.3649 42.43 26.3732L42.7934 26.3732C42.9339 26.3732 43.0825 26.3732 43.223 26.3732 43.256 26.3732 43.2973 26.3732 43.3303 26.3732 43.3303 27.1331 43.3303 27.893 43.3303 28.6611L43.3303 29.6605C43.3303 29.6605 43.3303 30.8665 43.3303 30.8665 43.3303 31.8824 43.3303 32.8983 43.3303 33.9143 41.1332 33.9143 38.9362 33.9143 36.7391 33.9143 34.542 33.9143 32.3532 33.9143 30.1479 33.9143 30.1479 31.2134 30.1479 28.7437 30.1479 26.3649 30.1892 26.3649 30.2305 26.3649 30.2718 26.3649 30.3957 26.3649 30.5196 26.3649 30.6434 26.3649 30.7591 26.3649 30.8747 26.3649 30.9904 26.3649 31.0895 26.3649 31.1803 26.3649 31.2794 26.3649L31.3207 26.3649C31.3207 26.3649 31.329 26.3649 31.329 26.3649 31.6924 26.3649 31.9815 26.2493 32.2045 26.0345 32.5432 25.6959 32.5349 25.2581 32.5349 25.1095 32.5349 24.0935 32.5349 23.0776 32.5349 22.0699L32.5349 20.9466C32.5349 20.9466 32.5349 18.8403 32.5349 18.8403L32.5349 9.87033C32.5349 8.84613 32.1054 8.40836 31.0895 8.40836L30.7508 8.40836C30.7508 8.40836 30.28 8.40836 30.28 8.40836 30.2387 8.40836 30.1974 8.40836 30.1561 8.40836 30.1561 5.8809 30.1561 3.36169 30.1561 0.834229L34.0877 0.834229M43.8589 0C43.8589 0 43.8176 0 43.7929 0 43.6442 0.00825969 43.5038 0.0165194 43.3551 0.0165194 43.1321 0.0165194 42.9173 0.0165194 42.6943 0.0165194L29.7679 0.0165194C29.7101 0.0165194 29.6523 0.0165194 29.5945 0.0165194 29.4458 0.0165194 29.3219 0.0495581 29.3219 0.330388 29.3302 3.20476 29.3302 6.08739 29.3219 8.96176 29.3219 9.20955 29.421 9.25911 29.6192 9.25911 29.6275 9.25911 29.644 9.25911 29.6523 9.25911 29.8588 9.25911 30.0653 9.25911 30.2718 9.25911 30.5443 9.25911 30.8086 9.25911 31.0812 9.25911 31.6346 9.25911 31.7007 9.33345 31.7007 9.89511 31.7007 13.5872 31.7007 17.2793 31.7007 20.9713 31.7007 22.359 31.7007 23.7549 31.7007 25.1425 31.7007 25.4398 31.6098 25.5637 31.3207 25.5637 31.3125 25.5637 31.3042 25.5637 31.2877 25.5637 31.1803 25.5637 31.0812 25.5637 30.9738 25.5637 30.7343 25.5637 30.4948 25.5637 30.2552 25.5637 30.0818 25.5637 29.9001 25.5637 29.7266 25.5472 29.7018 25.5472 29.6771 25.5472 29.6523 25.5472 29.3715 25.5472 29.2971 25.6711 29.3054 25.9767 29.3136 28.7685 29.3136 31.5685 29.3054 34.3603 29.3054 34.6494 29.3549 34.765 29.6936 34.765L29.6936 34.765C32.0393 34.765 34.3851 34.7568 36.7308 34.7568 39.0766 34.7568 41.4223 34.7568 43.7681 34.765L43.7681 34.765C44.0985 34.765 44.1563 34.6494 44.1563 34.3603 44.148 32.7992 44.1563 31.2464 44.1563 29.6853 44.1563 28.4381 44.1563 27.1826 44.1563 25.9354 44.1563 25.6629 44.082 25.5555 43.8342 25.5555 43.8176 25.5555 43.8011 25.5555 43.7763 25.5555 43.5946 25.5637 43.4047 25.572 43.223 25.572 42.9586 25.572 42.6943 25.572 42.43 25.572 41.9262 25.572 41.9179 25.572 41.9179 25.0599 41.9179 22.5324 41.9179 20.005 41.9179 17.4775 41.9179 14.9253 41.9179 12.3648 41.9179 9.81251 41.9179 9.36649 42.0088 9.26737 42.4548 9.26737 42.7026 9.26737 42.9421 9.25911 43.1899 9.25911 43.3634 9.25911 43.5451 9.25911 43.7185 9.27563 43.7516 9.27563 43.7763 9.27563 43.8011 9.27563 44.082 9.27563 44.1646 9.16 44.1646 8.83787 44.148 7.09507 44.1646 5.35228 44.1646 3.61774 44.1646 2.55224 44.1563 1.48674 44.1646 0.412984 44.1646 0.140415 44.0902 0.0330388 43.8507 0.0330388L43.8507 0.0330388Z" fill="#C5960C" transform="matrix(1.00611 0 0 1 506 832.117)"/><path d="M99.4219 11.3653C99.4219 12.1913 99.4136 13.0255 99.4219 13.8515 99.4219 14.1241 99.3393 14.2397 99.0667 14.2067 98.9263 14.1901 98.7859 14.2067 98.6455 14.2067 97.9682 14.2067 97.9103 14.1571 97.836 13.4716 97.8278 13.3724 97.8773 13.2485 97.7121 13.199 97.58 13.1577 97.5056 13.199 97.4148 13.2898 96.6549 14.0662 95.7463 14.4462 94.6312 14.4462 93.6814 14.4462 92.7893 14.1984 92.0294 13.7359 91.4182 13.3642 90.8483 12.8438 90.4353 12.1748 90.1875 11.7866 90.0636 11.3653 89.9232 10.9606 89.6589 10.2255 89.5185 9.45734 89.5515 8.65615 89.5763 8.00364 89.758 7.4172 89.9563 6.81424 89.9563 6.79772 89.981 6.78946 89.981 6.7812 90.0471 6.16173 90.4271 5.69093 90.774 5.22838 91.1044 4.78236 91.5339 4.40241 92.0377 4.12158 92.9215 3.61774 93.8796 3.35343 94.879 3.39473 95.7959 3.43603 96.6631 3.69208 97.4726 4.21244 98.2986 4.74106 98.7281 5.50921 99.1328 6.31866 99.2154 6.48386 99.1741 6.70687 99.1989 6.89684 99.2154 7.03726 99.1245 7.05377 99.0171 7.05377 98.4142 7.05377 97.8112 7.05377 97.2083 7.05377 97.0018 7.05377 96.9522 6.88858 96.9027 6.71513 96.6879 6.00479 96.2171 5.57529 95.4985 5.43488 95.3003 5.39358 95.1434 5.25316 94.9121 5.26142 93.6897 5.30272 92.7646 5.76526 92.2525 6.9464 91.9138 7.73933 91.856 8.54878 91.8725 9.39127 91.889 10.1429 92.2194 10.7789 92.5415 11.4066 92.6902 11.6957 92.9545 11.9931 93.2684 12.117 93.7805 12.3152 94.2761 12.6456 94.8543 12.5547 95.6802 12.4308 96.5145 12.2904 96.9522 11.4231 97.0926 11.1506 97.2165 10.878 97.3322 10.5972 97.4726 10.2585 97.3652 10.1016 96.977 10.0933 96.4319 10.0851 95.8785 10.0768 95.3333 10.0933 95.1021 10.0933 95.0112 10.0355 95.0277 9.79599 95.0442 9.44908 95.036 9.09392 95.0277 8.74701 95.0277 8.53226 95.1021 8.46618 95.3251 8.46618 96.5723 8.47444 97.8195 8.47444 99.075 8.46618 99.331 8.46618 99.4136 8.55704 99.4136 8.81309 99.4053 9.65558 99.4136 10.4981 99.4136 11.3406Z" fill="#023047" transform="matrix(1.00611 0 0 1 506 832.117)"/><path d="M148.74 8.9535C148.74 10.5641 148.732 12.183 148.74 13.7937 148.74 14.1241 148.641 14.2232 148.319 14.2067 147.84 14.1819 147.361 14.1819 146.89 14.2067 146.593 14.2232 146.51 14.1323 146.51 13.835 146.527 12.5878 146.51 11.3323 146.527 10.0851 146.527 9.73817 146.42 9.62254 146.073 9.62254 144.867 9.63906 143.661 9.63906 142.447 9.62254 142.158 9.62254 142.067 9.70513 142.067 10.0025 142.083 11.2662 142.067 12.5299 142.083 13.7937 142.083 14.1241 141.992 14.2232 141.662 14.2067 141.175 14.1736 140.679 14.1819 140.192 14.2067 139.87 14.2232 139.746 14.1323 139.746 13.7854 139.754 10.5311 139.754 7.26853 139.746 4.01421 139.746 3.7499 139.837 3.67556 140.084 3.67556 140.646 3.68382 141.208 3.69208 141.769 3.67556 142.042 3.6673 142.091 3.75816 142.091 4.00595 142.075 5.10449 142.091 6.19477 142.075 7.2933 142.075 7.60717 142.141 7.73107 142.48 7.72281 143.669 7.70629 144.867 7.70629 146.056 7.72281 146.42 7.72281 146.535 7.62369 146.527 7.24375 146.502 6.16173 146.527 5.07971 146.51 3.99769 146.51 3.73338 146.576 3.65904 146.841 3.67556 147.361 3.70034 147.881 3.70034 148.402 3.67556 148.683 3.6673 148.749 3.75816 148.749 4.03073 148.732 5.67441 148.749 7.31808 148.749 8.96176Z" fill="#023047" transform="matrix(1.00611 0 0 1 506 832.117)"/><path d="M159.511 25.7042C159.511 24.5643 159.511 23.4327 159.511 22.2929 159.511 22.0368 159.552 21.9212 159.85 21.9377 160.271 21.9625 160.692 21.9543 161.113 21.9377 161.378 21.9295 161.485 22.0121 161.469 22.2929 161.452 22.4746 161.37 22.7554 161.543 22.8298 161.708 22.9041 161.758 22.6068 161.873 22.4911 162.757 21.6073 163.823 21.5495 164.913 21.8386 165.285 21.9377 165.689 22.202 165.879 22.6398 165.945 22.7885 166.061 23.0363 166.317 22.6976 167.036 21.7643 168.043 21.5908 169.15 21.7312 169.712 21.7973 170.183 22.0616 170.554 22.4333 170.901 22.7802 171.116 23.2593 171.141 23.7631 171.232 25.572 171.157 27.3809 171.182 29.1897 171.182 29.4128 171.116 29.4788 170.893 29.4706 170.414 29.4541 169.935 29.4541 169.464 29.4706 169.208 29.4788 169.167 29.3797 169.167 29.1484 169.175 28.0086 169.15 26.877 169.183 25.7372 169.2 25.159 169.068 24.6056 169.018 24.044 168.977 23.5897 168.522 23.3501 168.068 23.3006 166.994 23.1932 166.458 23.7549 166.416 24.7873 166.367 26.175 166.4 27.5626 166.4 28.9585 166.4 29.2944 166.232 29.4623 165.896 29.4623 165.499 29.4623 165.111 29.4458 164.715 29.4623 164.459 29.4788 164.384 29.3962 164.384 29.1319 164.401 27.7113 164.384 26.2988 164.384 24.8782 164.384 24.4156 164.211 24.0027 164.013 23.6062 163.864 23.3088 162.98 23.218 162.592 23.3501 161.816 23.6145 161.593 24.1844 161.601 24.936 161.617 26.3154 161.593 27.6865 161.617 29.0658 161.617 29.3962 161.502 29.4706 161.213 29.4623 160.75 29.4458 160.288 29.4375 159.825 29.4623 159.544 29.4788 159.503 29.3715 159.511 29.1237 159.519 27.9756 159.511 26.8192 159.511 25.6711Z" fill="#023047" transform="matrix(1.00611 0 0 1 506 832.117)"/><path d="M98.2077 22.4085C98.1416 22.4085 98.0673 22.4003 98.0012 22.4085 97.39 22.5324 97.01 22.3177 96.8366 21.6982 96.7375 21.3596 96.3823 21.2026 96.1263 20.9879 95.5563 20.5171 94.8543 20.5501 94.1935 20.641 93.6731 20.7153 93.2271 21.0126 92.8637 21.4256 91.8477 22.582 91.7486 23.9614 91.9964 25.3572 92.1203 26.0758 92.4259 26.8192 93.0537 27.2817 93.7557 27.8021 94.5487 28.0499 95.4655 27.7691 95.9693 27.6121 96.374 27.3974 96.7044 26.9761 96.9192 26.7036 97.0266 26.3897 97.1009 26.0758 97.2083 25.5968 97.2578 25.5142 97.7534 25.5142 98.2407 25.5142 98.7363 25.5142 99.2236 25.5142 99.3971 25.5142 99.5375 25.5637 99.4301 25.7454 99.2732 26.018 99.3228 26.3154 99.2484 26.5962 99.0254 27.4635 98.5298 28.1408 97.869 28.7189 97.4065 29.1319 96.8283 29.3632 96.2749 29.6027 96.0519 29.7018 95.7794 29.6936 95.5316 29.7018 94.8625 29.7266 94.1852 29.7431 93.5162 29.644 93.1528 29.5945 92.8472 29.3962 92.525 29.2641 91.9303 29.0245 91.4182 28.6281 91.0052 28.1325 90.617 27.67 90.2536 27.2074 90.0802 26.5879 89.9563 26.1584 89.8241 25.7124 89.6589 25.2829 89.6176 25.1673 89.6259 25.0351 89.6176 24.9112 89.5185 23.8209 89.725 22.7967 90.1297 21.7808 90.5097 20.8227 91.1374 20.1123 91.9716 19.5342 92.9876 18.8321 94.1357 18.6834 95.3085 18.7743 96.085 18.8321 96.8118 19.0468 97.5139 19.4681 98.3068 19.9471 98.7446 20.6492 99.1576 21.3926 99.2897 21.6321 99.2732 21.9625 99.3062 22.2516 99.331 22.4333 99.1823 22.4003 99.0832 22.4003 98.8024 22.4003 98.5216 22.4003 98.2407 22.4003Z" fill="#023047" transform="matrix(1.00611 0 0 1 506 832.117)"/><path d="M113.967 8.90394C113.967 7.2933 113.967 5.67441 113.967 4.06377 113.967 3.77468 114.042 3.6673 114.339 3.67556 114.818 3.69208 115.297 3.69208 115.768 3.67556 116.007 3.6673 116.073 3.74164 116.073 3.98117 116.057 4.94755 116.073 5.91394 116.073 6.88858 116.073 6.9877 116.073 7.08681 116.073 7.18593 116.073 7.28505 116.106 7.40068 116.189 7.43372 116.296 7.47502 116.296 7.3346 116.346 7.27679 116.858 6.74817 117.453 6.41778 118.213 6.45082 118.493 6.45908 118.774 6.45082 119.055 6.45082 119.774 6.46734 120.245 6.89684 120.732 7.36764 121.186 7.79715 121.31 8.36706 121.574 8.8709 121.673 9.05262 121.665 9.30867 121.673 9.53168 121.698 10.2998 121.806 11.101 121.574 11.8279 121.409 12.3482 121.236 12.8851 120.79 13.3311 120.385 13.7441 119.922 14.0167 119.443 14.2893 119.386 14.3223 119.336 14.3553 119.262 14.3636 118.114 14.4792 117.032 14.3801 116.197 13.4468 116.164 13.4055 116.115 13.3394 116.09 13.3477 115.999 13.3724 116.04 13.455 116.04 13.5211 116.007 13.9837 115.754 14.2149 115.28 14.2149 114.983 14.2149 114.686 14.1901 114.397 14.2149 114.025 14.248 113.959 14.0828 113.959 13.7524 113.975 12.1417 113.959 10.5228 113.959 8.9122ZM116.04 10.2585C116.032 11.0928 116.115 11.7535 116.652 12.3317 117.098 12.8108 117.593 12.8934 118.18 12.8438 118.799 12.786 119.196 12.3482 119.369 11.8692 119.642 11.1341 119.782 10.3576 119.542 9.52342 119.344 8.80483 119.08 8.27621 118.337 7.99538 117.783 7.78889 116.957 7.9293 116.643 8.37532 116.23 8.97002 115.941 9.60602 116.032 10.2503Z" fill="#023047" transform="matrix(1.00611 0 0 1 506 832.117)"/><path d="M176.724 8.90394C176.724 7.28505 176.724 5.67441 176.724 4.05551 176.724 3.77468 176.782 3.65078 177.088 3.6673 177.534 3.69208 177.988 3.68382 178.434 3.6673 178.674 3.65904 178.74 3.73338 178.74 3.97291 178.731 5.03841 178.74 6.10391 178.74 7.17767 178.74 7.2933 178.657 7.4585 178.831 7.4998 178.946 7.52458 179.029 7.42546 179.12 7.31808 179.88 6.32692 180.962 6.34344 182.044 6.4756 182.919 6.57471 183.472 7.24375 183.72 8.09449 183.96 8.93698 183.844 9.77947 183.869 10.622 183.902 11.6875 183.869 12.753 183.885 13.8267 183.885 14.1488 183.786 14.2314 183.481 14.2149 183.076 14.1901 182.663 14.1901 182.258 14.2149 181.944 14.2314 181.854 14.1323 181.854 13.8185 181.87 12.4556 181.854 11.0928 181.862 9.72991 181.862 9.30041 181.746 8.9122 181.548 8.54052 181.325 8.12753 180.681 7.87974 180.218 8.02842 180.036 8.08624 179.855 8.02842 179.665 8.12753 178.971 8.49922 178.797 9.16825 178.764 9.82903 178.698 11.1423 178.731 12.4721 178.74 13.7854 178.74 14.0993 178.674 14.2314 178.327 14.2067 177.938 14.1736 177.542 14.1819 177.146 14.2067 176.823 14.2232 176.708 14.1323 176.716 13.7854 176.733 12.1583 176.716 10.5311 176.716 8.89569Z" fill="#023047" transform="matrix(1.00611 0 0 1 506 832.117)"/><path d="M129.941 10.6302C129.941 11.1754 129.958 11.7288 129.941 12.2739 129.925 12.7777 129.958 13.2816 130.098 13.7689 130.197 14.1075 130.115 14.248 129.735 14.2149 129.347 14.1819 128.95 14.1819 128.554 14.2149 128.215 14.248 128.058 14.091 128.009 13.8019 127.976 13.5541 127.91 13.5789 127.72 13.678 127.373 13.8763 127.001 14.0332 126.646 14.2149 126.15 14.471 125.613 14.3719 125.093 14.3801 124.085 14.3884 123.367 13.9093 122.954 13.009 122.574 12.1913 122.714 10.7211 123.904 10.2338 124.292 10.0686 124.655 9.91163 125.085 9.87859 125.663 9.83729 126.233 9.70513 126.811 9.62254 127.133 9.58124 127.579 9.58124 127.802 9.16 128.141 8.51574 127.753 7.90452 127.108 7.74759 126.761 7.66499 126.381 7.71455 126.018 7.73107 125.671 7.74759 125.192 8.17709 125.167 8.54052 125.143 8.85439 124.994 8.89569 124.738 8.88743 124.275 8.8709 123.813 8.86265 123.35 8.88743 123.036 8.90394 122.97 8.75527 123.045 8.51574 123.251 7.81367 123.615 7.24375 124.292 6.8638 125.456 6.20303 126.704 6.48386 127.918 6.4756 128.521 6.4756 129.016 6.7812 129.421 7.15289 129.702 7.40894 129.933 7.78889 129.933 8.22665 129.933 9.02784 129.933 9.82903 129.933 10.6302L129.933 10.6302ZM127.918 11.2414C127.877 11.0019 128.042 10.7046 127.852 10.5228 127.703 10.3742 127.53 10.6798 127.331 10.6633 126.91 10.6467 126.522 10.8119 126.117 10.878 125.646 10.9523 125.151 11.068 124.92 11.6296 124.763 12.0096 124.92 12.6704 125.283 12.8603 125.663 13.0503 126.059 13.0916 126.448 13.0173 126.836 12.9429 127.29 12.9016 127.53 12.5299 127.777 12.15 128.05 11.7535 127.918 11.2332Z" fill="#023047" transform="matrix(1.00611 0 0 1 506 832.117)"/><path d="M166.011 10.9276C166.011 11.7535 166.011 12.5382 166.011 13.3229 166.011 13.4385 166.011 13.5541 166.036 13.6533 166.193 14.1984 166.201 14.1984 165.632 14.1984 165.235 14.1984 164.847 14.1901 164.45 14.1984 164.194 14.2067 164.054 14.1406 164.062 13.8515 164.07 13.5459 163.914 13.5046 163.699 13.6698 162.782 14.3636 161.733 14.4792 160.643 14.3471 159.437 14.1984 158.693 13.0338 158.85 11.6792 158.949 10.8202 159.511 10.3989 160.213 10.0603 160.511 9.91989 160.808 9.88685 161.122 9.86207 161.7 9.82077 162.262 9.63906 162.848 9.61428 163.137 9.60602 163.459 9.49038 163.707 9.27563 163.98 9.04436 164.062 8.73049 163.938 8.43314 163.798 8.09449 163.567 7.76411 163.154 7.71455 162.823 7.67325 162.485 7.68977 162.146 7.70629 161.7 7.72281 161.237 8.12753 161.204 8.5653 161.188 8.82135 161.072 8.86265 160.866 8.86265 160.403 8.86265 159.941 8.86265 159.478 8.86265 159.049 8.86265 158.991 8.78831 159.098 8.37532 159.338 7.4585 160.023 6.95466 160.808 6.56645 160.94 6.50037 161.113 6.51689 161.262 6.50037 162.328 6.38474 163.393 6.37648 164.45 6.54993 165.02 6.64079 165.714 7.3759 165.855 7.91278 166.119 8.92046 165.879 9.94466 165.995 10.9193ZM163.98 11.2497C163.98 11.1588 163.98 11.1258 163.98 11.101 163.963 10.911 164.062 10.6715 163.922 10.5311 163.765 10.3742 163.616 10.6385 163.443 10.655 163.401 10.655 163.36 10.6715 163.319 10.6715 162.898 10.6715 162.501 10.8119 162.105 10.8863 161.667 10.9689 161.196 11.0845 160.965 11.6049 160.816 11.9353 160.882 12.6373 161.262 12.819 161.692 13.0255 162.154 13.1081 162.625 13.0173 162.898 12.9677 163.228 12.8934 163.393 12.7034 163.757 12.2822 164.07 11.8031 163.988 11.2497Z" fill="#023047" transform="matrix(1.00611 0 0 1 506 832.117)"/><path d="M155.051 10.8615C154.324 10.8615 153.589 10.8615 152.862 10.8615 152.309 10.8615 152.243 10.8863 152.375 11.4149 152.49 11.894 152.647 12.3895 153.176 12.6291 154.002 13.009 155.084 13.0255 155.753 12.1335 155.926 11.9022 156.108 11.8444 156.364 11.8527 156.711 11.8692 157.066 11.8527 157.413 11.8527 157.496 11.8527 157.628 11.8031 157.653 11.9353 157.669 12.0261 157.694 12.15 157.603 12.2078 157.413 12.34 157.405 12.563 157.306 12.7364 157.041 13.1742 156.695 13.5376 156.257 13.8267 155.414 14.3719 154.481 14.471 153.539 14.3553 152.333 14.1984 151.367 13.6285 150.764 12.5217 150.244 11.5636 150.211 10.5228 150.368 9.49038 150.483 8.73049 150.781 8.0119 151.384 7.4585 152.077 6.8225 152.837 6.393 153.812 6.4343 154.258 6.45082 154.712 6.393 155.158 6.49212 156.166 6.73165 156.868 7.3346 157.347 8.25969 157.719 8.98654 157.777 9.73817 157.785 10.5146 157.785 10.7624 157.735 10.8532 157.463 10.8532 156.662 10.8367 155.86 10.8532 155.059 10.8532ZM154.027 9.64732C154.489 9.64732 154.952 9.6308 155.414 9.64732 155.687 9.65558 155.803 9.51516 155.72 9.29215 155.604 8.97002 155.588 8.5653 155.315 8.35054 154.299 7.5411 153.002 7.75585 152.4 8.9948 152.193 9.41604 152.35 9.63906 152.821 9.63906 153.225 9.63906 153.63 9.63906 154.035 9.63906Z" fill="#023047" transform="matrix(1.00611 0 0 1 506 832.117)"/><path d="M134.352 25.7454C134.402 26.7531 134.096 27.67 133.485 28.4464 133.08 28.9585 132.502 29.2723 131.874 29.5036 130.999 29.8257 130.082 29.8257 129.239 29.5862 128.455 29.3715 127.728 28.9502 127.216 28.1738 126.654 27.3148 126.39 26.4062 126.456 25.4316 126.538 24.2422 126.976 23.1354 127.984 22.4085 128.471 22.0534 129.041 21.7395 129.694 21.723 130.363 21.7065 131.065 21.5991 131.692 21.8304 132.436 22.1029 133.113 22.5077 133.617 23.218 134.179 24.0027 134.311 24.8451 134.336 25.7454ZM132.337 25.6959C132.287 25.3407 132.279 24.9773 132.18 24.6139 131.932 23.664 131.362 23.2841 130.47 23.251 129.347 23.2097 128.678 23.9366 128.587 25.0269 128.546 25.5142 128.554 26.0015 128.587 26.4888 128.62 26.9514 128.843 27.3396 129.132 27.6782 129.504 28.1077 130.577 28.3307 131.065 28.0829 131.379 27.926 131.759 27.8104 131.924 27.4469 132.172 26.8935 132.395 26.3319 132.337 25.6959Z" fill="#023047" transform="matrix(1.00611 0 0 1 506 832.117)"/><path d="M108.656 14.3553C107.764 14.5701 107.004 14.1158 106.286 13.7193 105.79 13.4385 105.443 12.9182 105.154 12.373 104.667 11.4562 104.749 10.5146 104.774 9.55646 104.791 8.89569 105.113 8.31751 105.468 7.8467 106.03 7.10333 106.806 6.52515 107.822 6.46734 108.574 6.42604 109.35 6.3517 110.085 6.56645 110.647 6.73165 111.142 7.05377 111.572 7.50806 111.968 7.9293 112.257 8.4001 112.398 8.93698 112.58 9.63906 112.794 10.3494 112.563 11.1175 112.439 11.547 112.324 11.9765 112.158 12.3895 111.886 13.0668 111.39 13.5294 110.762 13.868 110.11 14.2149 109.441 14.5205 108.656 14.3636ZM110.548 10.4402C110.581 9.29215 110.316 8.39184 109.185 7.95408 108.656 7.74759 107.467 8.07798 107.219 8.5653 106.814 9.35823 106.641 10.209 106.806 11.0928 106.88 11.4975 107.037 11.9022 107.285 12.2409 107.822 12.976 108.582 12.9512 109.358 12.7695 109.573 12.7199 109.771 12.5712 109.945 12.3813 110.473 11.8031 110.581 11.1175 110.548 10.4485Z" fill="#023047" transform="matrix(1.00611 0 0 1 506 832.117)"/><path d="M108.541 25.7454C108.433 26.8027 108.227 27.7856 107.417 28.6033 106.459 29.5862 105.303 29.7266 104.031 29.7018 103.287 29.6853 102.693 29.3219 102.106 28.9915 101.834 28.8346 101.569 28.4629 101.33 28.1655 100.719 27.3809 100.644 26.4806 100.644 25.5885 100.636 24.3578 101.033 23.2345 102.048 22.4664 102.528 22.1112 103.089 21.7973 103.725 21.7478 104.427 21.6899 105.146 21.6321 105.815 21.8304 106.608 22.0699 107.277 22.5407 107.789 23.2345 108.111 23.6723 108.185 24.1761 108.367 24.6469 108.508 25.0021 108.532 25.3655 108.524 25.7454ZM106.509 25.7454C106.509 24.5148 106.071 23.5319 104.89 23.218 104.436 23.1023 103.527 23.408 103.221 23.7879 102.817 24.3 102.668 24.903 102.635 25.5472 102.618 25.9767 102.635 26.4145 102.808 26.8027 103.015 27.257 103.172 27.7278 103.717 27.9673 104.171 28.1655 104.601 28.1738 105.038 28.0912 105.377 28.0334 105.707 27.8847 105.931 27.5708 106.343 27.0092 106.542 26.3897 106.509 25.7289Z" fill="#023047" transform="matrix(1.00611 0 0 1 506 832.117)"/><path d="M157.752 25.7454C157.752 26.8688 157.744 27.9921 157.752 29.1154 157.752 29.3962 157.702 29.5201 157.388 29.4953 156.984 29.4706 156.571 29.4788 156.166 29.4953 155.926 29.5036 155.836 29.4293 155.86 29.1897 155.877 29.0411 155.86 28.8841 155.86 28.7272 155.86 28.6611 155.885 28.5785 155.786 28.562 155.712 28.5537 155.621 28.529 155.563 28.6198 154.96 29.5119 154.084 29.7514 153.06 29.7101 152.243 29.6771 151.574 29.388 151.078 28.7189 150.863 28.4298 150.847 28.0829 150.756 27.7691 150.549 27.0753 150.566 26.3401 150.574 25.6133 150.591 24.5148 150.591 23.4245 150.574 22.3259 150.574 22.0451 150.624 21.9212 150.938 21.9377 151.4 21.9625 151.863 21.9708 152.325 21.9377 152.672 21.913 152.705 22.0616 152.705 22.3507 152.697 23.7714 152.697 25.1838 152.705 26.6045 152.705 27.0092 152.705 27.4139 153.077 27.7278 153.366 27.9756 154.159 28.2564 154.481 28.0829 154.745 27.9343 155.092 27.9508 155.29 27.6617 155.555 27.2817 155.687 26.8605 155.695 26.4145 155.72 25.0516 155.712 23.6888 155.695 22.3342 155.695 22.0203 155.769 21.9212 156.083 21.9377 156.529 21.9625 156.984 21.9543 157.43 21.9377 157.669 21.9295 157.735 22.0121 157.735 22.2516 157.727 23.4162 157.735 24.5808 157.735 25.7454Z" fill="#023047" transform="matrix(1.00611 0 0 1 506 832.117)"/><path d="M109.953 25.6959C109.953 24.5561 109.961 23.4245 109.953 22.2846 109.953 22.0038 110.036 21.9212 110.308 21.9377 110.729 21.9625 111.151 21.946 111.572 21.9377 111.803 21.9377 111.952 21.9873 111.911 22.2681 111.902 22.3342 111.911 22.4085 111.911 22.4746 111.919 22.6068 111.853 22.8133 111.977 22.8546 112.175 22.9289 112.109 22.6563 112.208 22.5902 112.662 22.2516 113.075 21.8386 113.678 21.756 114.446 21.6569 115.231 21.6156 115.908 22.0121 116.23 22.202 116.569 22.4498 116.734 22.8876 116.965 23.5153 117.081 24.1265 117.073 24.7873 117.048 26.2328 117.056 27.6782 117.073 29.1237 117.073 29.388 117.023 29.4953 116.734 29.4788 116.288 29.4541 115.834 29.4623 115.388 29.4788 115.148 29.4871 115.074 29.4128 115.082 29.1732 115.09 28.0912 115.057 27.0092 115.099 25.9272 115.115 25.3325 114.983 24.7708 114.925 24.1926 114.876 23.7218 114.306 23.2758 113.852 23.2923 113.232 23.3171 112.67 23.3832 112.274 23.9448 112.2 24.044 112.175 24.1348 112.158 24.2339 112.001 25.2086 111.911 26.1832 111.944 27.1744 111.968 27.8352 111.935 28.4959 111.952 29.1567 111.96 29.4293 111.869 29.4871 111.621 29.4788 111.184 29.4623 110.746 29.4541 110.316 29.4788 109.994 29.5036 109.961 29.3715 109.961 29.0906 109.978 27.9508 109.961 26.8192 109.961 25.6794Z" fill="#023047" transform="matrix(1.00611 0 0 1 506 832.117)"/><path d="M121.996 21.7147C122.516 21.6734 123.135 21.7312 123.714 21.979 124.35 22.2516 125.151 22.9537 125.167 23.7218 125.167 23.8953 125.184 24.0109 124.953 24.0027 124.49 23.9861 124.027 24.0027 123.565 24.0027 123.425 24.0027 123.276 24.0027 123.218 23.8375 123.028 23.2758 122.541 23.1106 122.037 23.0115 121.698 22.9454 121.343 22.9785 121.037 23.1684 120.806 23.3088 120.575 23.4493 120.6 23.7962 120.624 24.1513 120.848 24.3826 121.128 24.4817 121.682 24.6717 122.26 24.7956 122.83 24.9277 123.59 25.0929 124.325 25.3159 124.944 25.795 125.176 25.9685 125.308 26.2658 125.349 26.5136 125.506 27.4635 125.399 28.3968 124.573 29.0163 123.928 29.5036 123.144 29.7266 122.318 29.7266 121.607 29.7266 120.897 29.7431 120.22 29.4871 119.344 29.1567 118.675 28.6363 118.46 27.67 118.337 27.1166 118.328 27.1166 118.915 27.1166 119.278 27.1166 119.642 27.1166 120.013 27.1166 120.228 27.1166 120.335 27.1992 120.393 27.4139 120.542 27.9425 121.021 28.306 121.574 28.3307 121.839 28.339 122.111 28.3142 122.376 28.3307 122.805 28.372 123.02 28.0251 123.309 27.8352 123.54 27.6865 123.35 27.0587 123.102 26.8853 122.615 26.5466 122.078 26.3897 121.492 26.2906 120.715 26.1667 119.964 25.9189 119.278 25.5307 118.725 25.2168 118.46 24.3578 118.609 23.7383 118.733 23.218 118.873 22.7224 119.303 22.4168 119.914 21.979 120.616 21.723 121.393 21.7395 121.558 21.7395 121.731 21.7395 122.004 21.7395Z" fill="#023047" transform="matrix(1.00611 0 0 1 506 832.117)"/><path d="M82.2748 17.3288C82.2748 11.7122 82.2748 6.10391 82.2748 0.487322 82.2748 0.330388 82.1839 0.0908566 82.3656 0.0412984 82.5886-0.0247791 82.8364 0.0165194 83.076 0.0330388 83.1503 0.0330388 83.1585 0.140415 83.1585 0.206492 83.1585 0.330388 83.1585 0.462543 83.1585 0.586438 83.1585 11.7866 83.1585 22.9867 83.1585 34.1869 83.1585 34.7155 82.8942 34.8972 82.3821 34.7402 82.2748 34.7072 82.2665 34.6411 82.2665 34.5503 82.2665 34.4264 82.2665 34.2942 82.2665 34.1703 82.2665 28.5537 82.2665 22.9454 82.2665 17.3288Z" fill="#C5960C" transform="matrix(1.00611 0 0 1 506 832.117)"/><path d="M142.1 25.7289C142.1 25.0103 142.1 24.3 142.1 23.5814 142.1 23.3419 142.017 23.2428 141.786 23.2758 141.769 23.2758 141.761 23.2758 141.745 23.2758 141.472 23.2428 141.1 23.4162 140.952 23.1849 140.745 22.8711 140.894 22.4498 140.877 22.0781 140.877 21.9295 140.993 21.946 141.092 21.946 141.257 21.946 141.431 21.946 141.596 21.946 141.926 21.946 142.094 21.7725 142.1 21.4256 142.1 20.9218 142.108 20.4179 142.1 19.9141 142.1 19.6746 142.174 19.592 142.405 19.592 142.909 19.592 143.413 19.6002 143.917 19.592 144.148 19.592 144.198 19.6746 144.189 19.8893 144.173 20.4345 144.189 20.9879 144.181 21.533 144.173 21.8551 144.288 21.9873 144.619 21.9625 144.9 21.9377 145.181 21.9625 145.461 21.9625 145.66 21.9625 145.767 22.0203 145.759 22.2516 145.734 23.3832 145.924 23.2923 144.784 23.2923 144.718 23.2923 144.644 23.3006 144.578 23.2923 144.255 23.2428 144.173 23.3832 144.181 23.697 144.198 24.8038 144.181 25.9106 144.181 27.0257 144.181 27.1248 144.181 27.2239 144.189 27.3231 144.247 27.8764 144.346 27.959 144.891 27.9756 145.464 27.9976 145.75 28.2977 145.75 28.8759 145.75 29.0328 145.75 29.1815 145.75 29.3384 145.75 29.5119 145.643 29.6358 145.47 29.6358 144.668 29.6523 143.876 29.7431 143.083 29.3632 142.397 29.0411 142.149 28.5124 142.1 27.8517 142.05 27.1579 142.091 26.4475 142.091 25.7454L142.091 25.7454Z" fill="#023047" transform="matrix(1.00611 0 0 1 506 832.117)"/><path d="M172.016 10.2585C172.016 9.59776 172.016 8.93698 172.016 8.27621 172.016 8.0119 171.967 7.87974 171.645 7.87974 170.786 7.888 170.802 7.87974 170.786 7.00422 170.786 6.66557 170.835 6.50863 171.24 6.53341 172.016 6.57471 172.016 6.54167 172.016 5.74874 172.016 5.35228 172.033 4.96407 172.016 4.56761 172.008 4.33634 172.099 4.27026 172.305 4.27026 172.826 4.27026 173.346 4.27852 173.866 4.27026 174.073 4.27026 174.131 4.3446 174.122 4.53457 174.114 5.09623 174.122 5.65789 174.114 6.21955 174.114 6.48386 174.197 6.56645 174.453 6.54993 174.75 6.53341 175.048 6.56645 175.337 6.54167 175.642 6.51689 175.708 6.64079 175.708 6.92162 175.708 7.888 175.708 7.888 174.758 7.888 174.643 7.888 174.535 7.89626 174.42 7.888 174.189 7.86322 174.122 7.97886 174.122 8.17709 174.122 9.45734 174.122 10.7293 174.122 12.0096 174.122 12.5134 174.593 12.7364 175.072 12.7447 175.692 12.753 175.692 12.7447 175.692 13.3642L175.692 13.4055C175.692 14.1488 175.684 14.091 174.957 14.2397 174.098 14.4132 173.346 14.1571 172.603 13.8019 172.281 13.645 172.239 13.2898 172.157 12.9925 171.925 12.1748 172.041 11.3323 172.016 10.5063 172.016 10.4237 172.016 10.3411 172.016 10.2503Z" fill="#023047" transform="matrix(1.00611 0 0 1 506 832.117)"/><path d="M133.741 8.94524C133.741 10.5311 133.741 12.117 133.741 13.7028 133.741 14.2893 133.79 14.2067 133.212 14.2067 132.816 14.2067 132.428 14.1984 132.031 14.2067 131.8 14.2067 131.709 14.1406 131.717 13.8928 131.734 13.3724 131.717 12.8521 131.717 12.34 131.717 9.5895 131.717 6.83902 131.717 4.09681 131.717 3.76642 131.8 3.65904 132.13 3.67556 132.535 3.70034 132.948 3.70034 133.353 3.67556 133.65 3.65904 133.757 3.73338 133.757 4.06377 133.741 5.69093 133.749 7.31808 133.749 8.94524Z" fill="#023047" transform="matrix(1.00611 0 0 1 506 832.117)"/><path d="M101.206 8.92872C101.206 7.30156 101.206 5.67441 101.206 4.04725 101.206 3.7499 101.28 3.65904 101.578 3.67556 102.024 3.70034 102.478 3.70034 102.924 3.67556 103.188 3.65904 103.254 3.7499 103.246 4.00595 103.23 5.05493 103.246 6.11217 103.246 7.16115 103.246 9.37475 103.246 11.5966 103.246 13.8102 103.246 14.1075 103.188 14.2397 102.858 14.2067 102.428 14.1736 101.991 14.1819 101.553 14.2067 101.264 14.2232 101.206 14.1158 101.206 13.8515 101.214 12.2078 101.206 10.5641 101.206 8.92872Z" fill="#023047" transform="matrix(1.00611 0 0 1 506 832.117)"/><path d="M167.771 8.94524C167.771 7.30156 167.771 5.66615 167.771 4.02247 167.771 3.7499 167.837 3.65904 168.118 3.67556 168.564 3.70034 169.018 3.68382 169.464 3.67556 169.679 3.67556 169.786 3.72512 169.786 3.98117 169.778 7.27679 169.786 10.5724 169.786 13.868 169.786 14.1323 169.687 14.2149 169.439 14.2067 169.043 14.1984 168.655 14.1819 168.258 14.2067 167.886 14.2397 167.763 14.1323 167.771 13.7359 167.796 12.1335 167.779 10.5394 167.779 8.93698Z" fill="#023047" transform="matrix(1.00611 0 0 1 506 832.117)"/><path d="M135.847 25.6794C135.847 24.5561 135.855 23.4327 135.847 22.3094 135.847 22.0203 135.921 21.913 136.219 21.9377 136.607 21.9625 137.003 21.9625 137.4 21.9377 137.681 21.9212 137.739 22.0286 137.714 22.2764 137.697 22.4829 137.706 22.6976 137.714 22.9041 137.714 22.9867 137.656 23.1271 137.796 23.1436 137.887 23.1602 137.97 23.1106 138.028 23.0032 138.284 22.4829 138.746 22.2186 139.225 21.9295 139.655 21.6652 140.101 21.7312 140.547 21.723 140.745 21.723 140.696 21.8882 140.696 22.0038 140.696 22.4251 140.679 22.8463 140.704 23.2675 140.72 23.5319 140.629 23.6145 140.373 23.5814 139.812 23.5071 139.267 23.5649 138.796 23.9118 138.416 24.1926 138.143 24.5313 138.028 25.0434 137.73 26.3897 137.945 27.7443 137.887 29.0906 137.871 29.3962 137.821 29.5119 137.499 29.4953 137.078 29.4706 136.657 29.4623 136.235 29.4953 135.897 29.5201 135.847 29.388 135.855 29.0906 135.872 27.9508 135.855 26.8192 135.855 25.6794Z" fill="#023047" transform="matrix(1.00611 0 0 1 506 832.117)"/><path d="M148.84 25.7207C148.84 26.8275 148.815 27.9343 148.848 29.0493 148.856 29.4458 148.732 29.5201 148.377 29.4953 147.989 29.4623 147.592 29.4788 147.196 29.4953 146.965 29.5036 146.915 29.4128 146.915 29.2063 146.915 26.877 146.915 24.5478 146.915 22.2186 146.915 21.979 147.006 21.9377 147.212 21.946 147.65 21.9543 148.08 21.9708 148.517 21.946 148.79 21.9295 148.84 22.0368 148.84 22.2846 148.831 23.4327 148.84 24.5891 148.84 25.7372Z" fill="#023047" transform="matrix(1.00611 0 0 1 506 832.117)"/><path d="M132.543 42.7521C132.543 42.1327 132.543 41.5215 132.543 40.902 132.543 40.5716 132.461 40.299 132.039 40.299 131.965 40.299 131.882 40.2412 131.816 40.1999 131.775 40.1751 131.717 40.1256 131.75 40.0595 131.767 40.0347 131.816 40.0182 131.849 40.0182 132.436 40.0182 133.031 40.0182 133.617 40.0099 133.675 40.0099 133.741 40.0347 133.724 40.0925 133.708 40.1503 133.65 40.2412 133.6 40.2495 132.857 40.3816 132.973 40.9681 132.956 41.4802 132.915 42.587 132.981 43.6938 132.89 44.8006 132.808 45.8165 131.858 46.7333 130.833 46.7498 130.47 46.7498 130.107 46.7498 129.735 46.7498 128.727 46.7416 128.033 45.9899 127.885 44.9988 127.695 43.702 127.794 42.4135 127.769 41.125 127.761 40.6294 127.645 40.299 127.133 40.1916 127.067 40.1751 126.976 40.1916 126.993 40.0843 127.009 39.9852 127.1 40.0182 127.158 40.0182 127.819 40.0182 128.479 40.0182 129.132 40.0182 129.19 40.0182 129.289 39.9852 129.297 40.0843 129.297 40.1503 129.231 40.1669 129.182 40.1751 128.579 40.2742 128.512 40.7203 128.512 41.2076 128.512 42.3722 128.479 43.5368 128.57 44.7014 128.636 45.5109 129.165 46.0891 129.941 46.3699 130.743 46.659 131.387 46.4442 131.957 45.9074 132.32 45.5687 132.535 45.1309 132.527 44.6106 132.527 43.9911 132.527 43.3799 132.527 42.7604 132.527 42.7604 132.527 42.7604 132.527 42.7604Z" fill="#023047" transform="matrix(1.00611 0 0 1 506 832.117)"/><path d="M30.3131 46.7168C29.834 46.7168 29.3549 46.7168 28.8841 46.7168 28.8181 46.7168 28.6942 46.7746 28.6859 46.6425 28.6859 46.5599 28.7685 46.5351 28.8346 46.5268 29.1897 46.4607 29.2723 46.2212 29.2641 45.8991 29.2641 44.5693 29.2641 43.2312 29.2641 41.9014 29.2641 41.6288 29.2228 41.4223 28.9254 41.315 28.8511 41.2902 28.7024 41.2076 28.7272 41.0919 28.7602 40.9681 28.8924 41.0259 28.9832 41.0259 29.8918 41.0259 30.8169 40.9598 31.7172 41.0424 32.4771 41.1085 33.2287 41.381 33.7326 41.9757 34.3686 42.7356 34.6577 43.9168 34.096 45.0566 33.8234 45.61 33.4187 45.9734 32.9562 46.3203 32.601 46.5929 32.1467 46.6425 31.7337 46.7003 31.2712 46.7746 30.7839 46.7168 30.3048 46.7168 30.3048 46.7168 30.3048 46.7168 30.3048 46.7168ZM29.9083 43.6938 29.9083 43.6938C29.9083 44.3215 29.9331 44.9575 29.9001 45.5852 29.8753 46.0643 30.2965 46.5103 30.7508 46.5433 31.2464 46.5764 31.7255 46.5681 32.2045 46.3534 32.9066 46.0395 33.3278 45.5357 33.4517 44.8088 33.5509 44.2306 33.5509 43.6277 33.4517 43.0495 33.3857 42.6696 33.27 42.2731 32.9562 42.017 32.7001 41.8105 32.4606 41.6123 32.1302 41.4719 31.5437 41.2324 30.9738 41.1498 30.3626 41.2158 30.0735 41.2489 29.8753 41.3893 29.8918 41.7527 29.9249 42.397 29.9001 43.0412 29.9001 43.6855Z" fill="#023047" transform="matrix(1.00611 0 0 1 506 832.117)"/><path d="M15.2474 46.5846C15.2887 46.7498 15.1648 46.7333 15.0739 46.7416 14.314 46.7664 13.5294 46.8572 12.8273 46.4773 12.4474 46.2708 12.1417 45.9569 11.8857 45.61 11.5801 45.197 11.3984 44.7097 11.3488 44.2059 11.2827 43.6277 11.4644 43.0825 11.704 42.5374 12.0178 41.8188 12.6125 41.4802 13.2238 41.1085 13.3559 41.0341 13.4716 41.0011 13.6037 40.9846 14.314 40.9185 15.0326 40.8194 15.7182 41.158 16.1642 41.381 16.5111 41.7197 16.858 42.0583 17.0563 42.2566 17.0563 42.5704 17.1554 42.8182 17.2958 43.1899 17.4527 43.5946 17.3701 44.0241 17.1884 45.007 16.8085 45.8743 15.9329 46.436 15.7347 46.5681 15.4869 46.6012 15.2474 46.5846 15.1896 46.4112 15.3795 46.4029 15.4291 46.3699 16.0403 45.9817 16.412 45.4613 16.4533 44.7097 16.4781 44.1893 16.4533 43.6772 16.4285 43.1569 16.3955 42.5374 16.0981 41.9675 15.6769 41.6453 15.1317 41.2158 14.4462 40.7616 13.645 41.1745 13.1164 41.4471 12.6208 41.7362 12.3895 42.3722 12.183 42.9586 12.183 43.5368 12.2243 44.1233 12.2739 44.718 12.4061 45.2879 12.8025 45.7752 13.2155 46.279 13.6863 46.6177 14.3801 46.5764 14.6609 46.5599 14.95 46.4938 15.2391 46.5764Z" fill="#023047" transform="matrix(1.00611 0 0 1 506 832.117)"/><path d="M70.1495 41.0094C70.4717 41.0094 70.7938 40.9846 71.1159 41.0094 72.0906 41.0919 72.9826 41.7114 72.6522 42.8843 72.5366 43.289 72.2475 43.5203 71.9254 43.7185 71.6693 43.8755 71.6115 44.0489 71.785 44.2967 72.0988 44.7675 72.3631 45.2879 72.7431 45.7009 73.0322 46.0147 73.2387 46.4855 73.7508 46.5599 73.8168 46.5681 73.9077 46.5599 73.8829 46.6755 73.8664 46.7416 73.8003 46.7333 73.7425 46.7416 73.0652 46.8159 72.5448 46.5599 72.1484 46.0147 71.785 45.5109 71.4463 44.9905 71.1324 44.4619 70.9672 44.1811 70.4882 44.0076 70.1991 44.1398 70.0752 44.1976 69.943 44.2967 69.9596 44.4784 70.0174 45.0318 69.8605 45.6017 70.0835 46.1551 70.1743 46.3864 70.2569 46.502 70.4882 46.5351 70.5543 46.5433 70.6864 46.5351 70.6616 46.659 70.6369 46.7664 70.5212 46.7085 70.4469 46.7085 69.943 46.7085 69.4392 46.7085 68.9354 46.7085 68.8693 46.7085 68.7784 46.7498 68.7536 46.659 68.7289 46.5599 68.8197 46.5433 68.8858 46.5433 69.3483 46.5433 69.3566 46.213 69.3566 45.8743 69.3566 44.528 69.3566 43.1817 69.3566 41.8353 69.3566 41.5545 69.3566 41.2984 68.9601 41.2902 68.8528 41.2902 68.7702 41.1993 68.7784 41.0919 68.7949 40.9433 68.9354 41.0011 69.018 41.0011 69.3979 40.9928 69.7779 41.0011 70.1578 41.0011L70.1578 41.0011ZM69.9513 42.5622C69.9513 42.8843 69.9678 43.2064 69.9513 43.5286 69.9348 43.7598 70.0917 43.8589 70.2404 43.9168 71.0085 44.2141 72.0162 43.5203 72.0575 42.7026 72.1071 41.794 71.2729 41.0672 70.356 41.1993 70.1082 41.2324 69.9596 41.3728 69.9596 41.6371 69.9596 41.9427 69.9596 42.2566 69.9596 42.5622Z" fill="#023047" transform="matrix(1.00611 0 0 1 506 832.117)"/><path d="M2.20534 40.0182C2.83307 40.0182 3.46907 40.0265 4.09681 40.0182 4.35286 40.0182 4.46023 40.0925 4.44371 40.3568 4.42719 40.6129 4.44371 40.8607 4.44371 41.1167 4.44371 41.2241 4.42719 41.3067 4.29504 41.3315 4.12984 41.3645 4.16288 41.2406 4.1381 41.1498 3.96465 40.522 3.7499 40.3568 3.10564 40.3403 2.70918 40.3321 2.32097 40.3403 1.92451 40.3403 1.65194 40.3403 1.52804 40.456 1.52804 40.745 1.54456 41.4223 1.54456 42.0914 1.52804 42.7687 1.52804 43.1073 1.67672 43.2147 1.98233 43.2064 2.37879 43.1982 2.767 43.1899 3.16346 43.1817 3.46081 43.1817 3.7086 43.0825 3.71686 42.7274 3.71686 42.6035 3.8325 42.5787 3.86553 42.4878 3.87379 42.4548 3.86553 42.3887 3.93161 42.4135 3.95639 42.4135 3.96465 42.4796 3.96465 42.5126 3.96465 43.0578 3.96465 43.6029 3.96465 44.1563 3.96465 44.1976 3.99769 44.2802 3.90683 44.2802 3.88205 44.2802 3.85727 44.2224 3.82424 44.2059 3.73338 44.148 3.71686 44.0572 3.7086 43.9581 3.68382 43.7433 3.50211 43.5864 3.34517 43.5781 2.81655 43.5368 2.27967 43.5368 1.75105 43.5616 1.5776 43.5616 1.52804 43.7433 1.52804 43.9168 1.52804 44.5197 1.52804 45.1227 1.52804 45.7256 1.52804 45.9404 1.7015 46.0808 1.71802 46.2956 1.74279 46.5764 2.02362 46.502 2.22186 46.5268 2.29619 46.5351 2.36227 46.5764 2.35401 46.659 2.35401 46.7581 2.25489 46.7333 2.19708 46.7333 1.51978 46.7333 0.850748 46.7333 0.173453 46.7333 0.0991163 46.7333-0.0165194 46.7746-0.00825969 46.6342-0.00825969 46.5516 0.0743372 46.5433 0.140415 46.5268 0.710333 46.3864 0.759891 46.3203 0.768151 45.7091 0.768151 44.1811 0.759891 42.6448 0.776411 41.1167 0.776411 40.6872 0.718593 40.3568 0.239531 40.2412 0.165194 40.2247 -4.58505e-17 40.2329 0.0247791 40.1008 0.0495581 39.9521 0.206492 40.0265 0.305608 40.0265 0.933345 40.0265 1.56934 40.0265 2.19708 40.0265 2.19708 40.0265 2.19708 40.0265 2.19708 40.0265Z" fill="#023047" transform="matrix(1.00611 0 0 1 506 832.117)"/><path d="M99.8514 41.0094C100.628 40.8607 101.363 40.8607 102.073 41.3232 102.503 41.604 102.924 41.9344 103.097 42.3805 103.378 43.1156 103.543 43.8755 103.279 44.7014 103.122 45.197 102.924 45.6265 102.561 45.9817 102.073 46.4607 101.512 46.7829 100.801 46.7498 100.273 46.7251 99.744 46.7911 99.2154 46.5764 98.4803 46.2708 97.9929 45.7504 97.6873 45.0566 97.3569 44.305 97.39 43.5286 97.6791 42.7604 97.9847 41.9592 99.0584 40.9433 99.8596 41.0011 99.9422 41.0919 99.8927 41.1332 99.7936 41.1745 99.2071 41.4223 98.7859 41.7775 98.5216 42.4218 98.1747 43.2477 98.2077 44.0159 98.4555 44.8088 98.5298 45.0318 98.5463 45.3044 98.695 45.4944 99.1989 46.1386 99.7523 46.6094 100.686 46.6012 101.677 46.5929 102.445 45.7174 102.536 44.9823 102.651 44.1067 102.751 43.2064 102.255 42.3474 101.925 41.7775 101.512 41.4306 100.942 41.158 100.578 40.9846 100.207 41.1167 99.8596 41.0094Z" fill="#023047" transform="matrix(1.00611 0 0 1 506 832.117)"/><path d="M20.4923 41.0176C20.8805 41.0672 21.4339 40.9268 21.979 41.1663 22.5324 41.4141 22.8133 41.8023 22.8133 42.3805 22.8133 42.9421 22.6481 43.4625 22.0864 43.7185 21.9212 43.7929 21.8882 43.8837 21.8964 44.0324 21.9047 44.1398 21.913 44.2554 21.979 44.3545 22.4168 45.0483 22.8463 45.7339 23.4327 46.3121 23.5732 46.4525 23.7136 46.5516 23.9201 46.5681 23.9779 46.5681 24.0853 46.5516 24.0687 46.659 24.0522 46.7498 23.9531 46.7251 23.8953 46.7251 23.3171 46.7581 22.8463 46.6425 22.4416 46.1469 22.0121 45.6183 21.6486 45.0649 21.3183 44.4784 21.1861 44.2389 20.5831 44.0076 20.3601 44.1315 20.2362 44.2059 20.1371 44.3132 20.1454 44.4949 20.1619 44.9575 20.1454 45.42 20.1619 45.8826 20.1784 46.1799 20.2693 46.4607 20.6244 46.5268 20.6905 46.5433 20.7731 46.5599 20.7483 46.659 20.7318 46.7251 20.6575 46.7003 20.6079 46.7003 20.071 46.7003 19.5424 46.7003 19.0055 46.7003 18.956 46.7003 18.8651 46.6755 18.8651 46.659 18.8486 46.5516 18.956 46.5764 19.0055 46.5681 19.4268 46.4855 19.5672 46.2212 19.5589 45.8082 19.5424 44.5775 19.5424 43.3386 19.5589 42.1079 19.5589 41.7032 19.4846 41.3976 19.1047 41.2076 19.0468 41.1745 18.956 41.1745 18.9808 41.0754 19.0055 40.9763 19.0964 41.0094 19.1542 41.0094 19.5507 41.0094 19.9389 41.0094 20.4923 41.0094ZM20.1536 42.6117C20.1536 42.9173 20.1702 43.2312 20.1536 43.5368 20.1371 43.7681 20.3023 43.8672 20.4427 43.925 21.087 44.1728 22.0534 43.6277 22.1525 42.9586 22.3094 41.8353 21.7147 41.2571 20.6244 41.1911 20.3188 41.1745 20.1784 41.3645 20.1619 41.6453 20.1454 41.9675 20.1619 42.2896 20.1619 42.6117Z" fill="#023047" transform="matrix(1.00611 0 0 1 506 832.117)"/><path d="M159.908 41.0176C160.271 41.0424 160.841 40.9102 161.37 41.1745 161.766 41.3728 162.237 41.7775 162.262 42.2235 162.295 42.9504 162.039 43.446 161.403 43.7763 161.138 43.9168 161.254 44.1563 161.378 44.3297 161.708 44.7593 161.873 45.3044 162.278 45.6843 162.617 45.9982 162.79 46.5186 163.344 46.5764 163.393 46.5764 163.467 46.5929 163.443 46.6755 163.418 46.7664 163.335 46.7416 163.269 46.7498 162.452 46.849 161.915 46.3947 161.502 45.7752 161.213 45.3374 160.957 44.8749 160.684 44.4289 160.535 44.1893 159.949 44.0324 159.676 44.1563 159.528 44.2224 159.536 44.3545 159.536 44.4784 159.536 44.941 159.536 45.4035 159.536 45.8661 159.536 46.1882 159.61 46.4773 160.007 46.5268 160.073 46.5351 160.131 46.6177 160.197 46.6672 160.131 46.7498 160.048 46.7251 159.965 46.7251 159.462 46.7251 158.958 46.7251 158.454 46.7251 158.396 46.7251 158.297 46.7581 158.297 46.6507 158.297 46.5929 158.363 46.5681 158.421 46.5681 158.916 46.5433 158.933 46.1964 158.925 45.833 158.925 44.5528 158.925 43.2808 158.925 42.0005 158.925 41.6866 158.982 41.3315 158.495 41.3067 158.404 41.3067 158.346 41.2076 158.355 41.125 158.355 41.0011 158.479 41.0341 158.545 41.0341 158.941 41.0341 159.329 41.0341 159.908 41.0341ZM159.536 42.5457C159.536 42.8843 159.552 43.223 159.536 43.5533 159.519 43.7681 159.685 43.8837 159.8 43.9085 160.213 43.9911 160.618 43.9002 161.014 43.7598 161.221 43.6855 161.237 43.5038 161.345 43.3799 161.849 42.7769 161.642 42.174 161.254 41.6701 160.957 41.2819 160.461 41.1085 159.932 41.1828 159.685 41.2158 159.544 41.348 159.552 41.6123 159.552 41.9179 159.552 42.2318 159.552 42.5374Z" fill="#023047" transform="matrix(1.00611 0 0 1 506 832.117)"/><path d="M136.268 44.2224C136.268 44.8006 136.268 45.3705 136.268 45.9487 136.268 46.246 136.31 46.5433 136.723 46.5433 136.789 46.5433 136.921 46.5516 136.896 46.6672 136.871 46.7746 136.756 46.7168 136.681 46.7168 136.285 46.7168 135.897 46.7168 135.5 46.7168 135.426 46.7168 135.31 46.7664 135.294 46.6507 135.285 46.5764 135.385 46.5599 135.451 46.5516 135.798 46.5186 135.855 46.2956 135.872 45.9982 135.93 44.6271 135.88 43.2477 135.897 41.8766 135.897 41.4554 135.591 41.3067 135.261 41.1828 135.203 41.158 135.095 41.1828 135.112 41.0837 135.129 40.9928 135.228 41.0259 135.285 41.0259 135.566 41.0259 135.847 41.0341 136.128 41.0176 136.285 41.0011 136.367 41.0919 136.425 41.1828 137.16 42.2648 138.102 43.1817 138.92 44.1976 139.201 44.5445 139.49 44.9162 139.845 45.2135 139.927 45.2796 139.969 45.3374 140.084 45.3209 140.233 45.3044 140.2 45.1888 140.2 45.0979 140.2 44.0985 140.241 43.0991 140.175 42.1079 140.15 41.6866 140.068 41.1332 139.399 41.158 139.366 41.158 139.3 41.1415 139.333 41.0837 139.349 41.0589 139.399 41.0341 139.432 41.0341 139.936 41.0341 140.439 41.0259 140.943 41.0259 140.976 41.0259 141.034 41.0424 141.042 41.0672 141.084 41.1415 141.026 41.1498 140.968 41.1745 140.514 41.3563 140.439 41.7114 140.448 42.1575 140.473 43.5616 140.456 44.9657 140.448 46.3699 140.448 46.4855 140.514 46.6425 140.39 46.7168 140.216 46.8159 140.192 46.5929 140.134 46.5268 139.556 45.8743 139.019 45.1888 138.416 44.5528 138.127 44.2472 137.846 43.9333 137.573 43.6194 137.251 43.256 136.888 42.8843 136.64 42.4465 136.607 42.3887 136.516 42.3639 136.5 42.3061 136.467 42.1987 136.384 42.1822 136.31 42.1987 136.194 42.2235 136.244 42.3392 136.244 42.4052 136.244 43.0082 136.244 43.6112 136.244 44.2141L136.26 44.2141Z" fill="#023047" transform="matrix(1.00611 0 0 1 506 832.117)"/><path d="M105.6 43.9168C105.6 43.2725 105.6 42.6283 105.6 41.984 105.6 41.5132 105.418 41.2984 104.964 41.1745 104.906 41.158 104.799 41.1911 104.807 41.0919 104.807 40.9928 104.915 41.0259 104.972 41.0259 105.278 41.0259 105.592 41.0259 105.897 41.0259 106.03 41.0259 106.112 41.0672 106.187 41.1993 106.509 41.761 106.971 42.2235 107.376 42.7191 108.078 43.5616 108.821 44.371 109.54 45.2053 109.623 45.2961 109.746 45.3209 109.796 45.4365 109.903 45.3457 109.879 45.2135 109.879 45.0896 109.879 44.0489 109.879 43.0165 109.879 41.9757 109.879 41.5462 109.697 41.3232 109.284 41.1828 109.226 41.1663 109.127 41.1911 109.135 41.0919 109.135 41.0094 109.218 41.0259 109.267 41.0259 109.755 41.0259 110.25 41.0259 110.738 41.0259 110.787 41.0259 110.862 41.0094 110.862 41.0919 110.862 41.1167 110.82 41.1663 110.787 41.1663 110.209 41.2737 110.151 41.7279 110.143 42.1822 110.126 43.5699 110.143 44.9575 110.143 46.3534 110.143 46.4525 110.151 46.5516 110.143 46.6507 110.126 46.7581 110.06 46.7829 109.978 46.692 109.804 46.4938 109.598 46.3203 109.449 46.0973 109.135 45.6348 108.681 45.2879 108.359 44.8419 107.971 44.2967 107.483 43.8342 107.079 43.2973 106.814 42.9504 106.542 42.5787 106.195 42.2896 106.12 42.2318 106.079 42.1822 105.988 42.207 105.897 42.2318 105.922 42.3226 105.922 42.3805 105.939 43.6442 105.856 44.9079 105.997 46.1634 106.03 46.4525 106.236 46.502 106.451 46.5599 106.5 46.5764 106.575 46.6177 106.575 46.6507 106.575 46.7498 106.484 46.7251 106.418 46.7251 105.997 46.7251 105.575 46.7251 105.154 46.7251 105.105 46.7251 105.03 46.7498 105.022 46.6672 105.022 46.5929 105.088 46.5846 105.138 46.5764 105.518 46.4855 105.592 46.213 105.584 45.8661 105.567 45.2218 105.584 44.5775 105.584 43.9333 105.584 43.9333 105.592 43.9333 105.6 43.9333Z" fill="#023047" transform="matrix(1.00611 0 0 1 506 832.117)"/><path d="M50.3345 44.1398C50.3345 44.6601 50.3263 45.1805 50.3345 45.7009 50.3511 46.3121 50.4667 46.4442 51.0697 46.5929 51.1192 46.6012 51.1936 46.5929 51.1936 46.6672 51.1936 46.7581 51.111 46.7251 51.0697 46.7251 50.5906 46.7251 50.1115 46.7251 49.6407 46.7251 49.5912 46.7251 49.5168 46.7498 49.5086 46.6755 49.4921 46.5846 49.5746 46.5516 49.6407 46.5433 50.0042 46.4773 50.0702 46.213 50.0702 45.9074 50.0702 44.5858 50.0702 43.2643 50.0868 41.951 50.095 41.4884 49.7398 41.3976 49.4673 41.2076 49.4177 41.1745 49.3103 41.2076 49.3269 41.1002 49.3434 41.0011 49.4342 41.0424 49.5003 41.0341 49.5581 41.0341 49.6159 41.0341 49.6655 41.0341 50.1198 41.0424 50.5493 40.9268 50.8384 41.538 51.1027 42.0996 51.6313 42.5374 52.0691 43.0082 52.5151 43.4873 52.9281 43.9994 53.3576 44.4949 53.5806 44.751 53.8367 44.974 54.0431 45.2466 54.0927 45.3127 54.1423 45.3457 54.2083 45.3292 54.2992 45.3127 54.2827 45.2218 54.2827 45.1557 54.2827 44.0324 54.2827 42.9091 54.2414 41.7858 54.2331 41.5132 54.0927 41.1911 53.6962 41.1911 53.6384 41.1911 53.5393 41.2076 53.5393 41.1085 53.5393 41.0094 53.6467 41.0341 53.7045 41.0341 54.167 41.0341 54.6296 41.0341 55.0921 41.0341 55.1582 41.0341 55.2491 41.0176 55.2491 41.125 55.2491 41.1828 55.183 41.1993 55.1252 41.2076 54.77 41.2489 54.6709 41.4802 54.6544 41.8023 54.5883 43.3055 54.6544 44.8088 54.6213 46.3038 54.6213 46.4525 54.7039 46.6672 54.5635 46.7251 54.39 46.7829 54.1836 46.5599 54.1588 46.4607 54.0349 46.0725 53.6962 45.8743 53.465 45.5852 52.6803 44.6106 51.7965 43.7185 51.0449 42.7108 50.9292 42.5539 50.7227 42.4796 50.6567 42.2648 50.6319 42.1657 50.5163 42.1987 50.4419 42.1987 50.318 42.1987 50.3428 42.3144 50.3428 42.3887 50.3428 42.9752 50.3428 43.5699 50.3428 44.1563 50.3428 44.1563 50.3511 44.1563 50.3593 44.1563Z" fill="#023047" transform="matrix(1.00611 0 0 1 506 832.117)"/><path d="M75.857 44.0489C75.857 44.5693 75.8735 45.0896 75.857 45.61 75.8487 45.8908 76.0057 46.1056 76.0387 46.3699 76.0717 46.6012 76.3278 46.4773 76.4599 46.5681 76.5012 46.5929 76.5838 46.5846 76.5838 46.659 76.5838 46.7416 76.5095 46.7168 76.4599 46.7168 75.9974 46.7168 75.5349 46.7168 75.0723 46.7168 75.0145 46.7168 74.9484 46.7168 74.9484 46.6507 74.9484 46.6177 75.0228 46.5599 75.064 46.5599 75.5266 46.5268 75.4936 46.1882 75.5018 45.8661 75.5018 44.6188 75.5266 43.3716 75.5183 42.1162 75.5183 41.3728 75.4688 41.3893 74.8493 41.1663 74.808 41.1498 74.7171 41.1663 74.7419 41.0837 74.7502 41.0507 74.8328 41.0259 74.8823 41.0259 75.221 41.0259 75.5596 41.0259 75.89 41.0176 75.9644 41.0176 76.0139 41.0507 76.0552 41.1167 76.8647 42.2813 77.831 43.3138 78.7561 44.3793 78.9957 44.6601 79.3178 44.8831 79.4747 45.2383 79.5243 45.354 79.6317 45.3457 79.7225 45.3374 79.8382 45.3209 79.8051 45.2135 79.8051 45.1309 79.8051 44.082 79.8299 43.0247 79.7803 41.9757 79.7638 41.6288 79.6399 41.2158 79.1443 41.1745 79.1113 41.1745 79.0535 41.1415 79.0452 41.1167 79.037 41.0507 79.0948 41.0259 79.1526 41.0259 79.6564 41.0259 80.1603 41.0259 80.6641 41.0424 80.6972 41.0424 80.7467 41.0672 80.7632 41.0919 80.7798 41.1415 80.7302 41.158 80.6889 41.1663 80.1107 41.3067 80.0446 41.7445 80.0529 42.24 80.0612 43.6277 80.0529 45.0236 80.0529 46.4112 80.0529 46.5103 80.119 46.659 80.0116 46.7085 79.9703 46.7333 79.8382 46.6094 79.7721 46.5351 79.3921 46.1138 78.9957 45.7174 78.6488 45.2714 78.1532 44.6354 77.6163 44.0324 77.0959 43.4212 76.8068 43.0743 76.5673 42.6613 76.1956 42.397 76.1048 42.3309 76.0883 42.1327 75.9231 42.2153 75.7909 42.2813 75.857 42.4135 75.857 42.5126 75.857 43.033 75.857 43.5533 75.857 44.0737 75.857 44.0737 75.8652 44.0737 75.8735 44.0737Z" fill="#023047" transform="matrix(1.00611 0 0 1 506 832.117)"/><path d="M154.588 46.7168C153.969 46.7168 153.349 46.7168 152.738 46.7168 152.68 46.7168 152.589 46.7498 152.581 46.6507 152.581 46.6342 152.664 46.6012 152.713 46.5764 153.308 46.3451 153.308 46.3451 153.316 45.7009 153.316 44.4206 153.316 43.1486 153.316 41.8684 153.316 41.5215 153.25 41.2406 152.846 41.1828 152.788 41.1828 152.722 41.158 152.738 41.0919 152.755 40.9928 152.846 41.0259 152.903 41.0259 153.688 41.0259 154.473 41.0259 155.266 41.0259 155.522 41.0259 155.769 41.0507 156.026 41.0259 156.364 40.9928 156.496 41.1332 156.472 41.4554 156.472 41.4802 156.472 41.5132 156.472 41.538 156.472 41.6949 156.571 41.951 156.43 42.0005 156.207 42.0749 156.215 41.8023 156.133 41.6619 155.943 41.3397 155.588 41.2819 155.257 41.2324 154.943 41.1911 154.613 41.2324 154.291 41.2158 154.027 41.2076 153.936 41.3315 153.936 41.571 153.936 42.1575 153.936 42.7521 153.936 43.3386 153.936 43.6029 154.06 43.7268 154.324 43.702 154.481 43.6938 154.638 43.6855 154.787 43.702 155.282 43.7516 155.662 43.6277 155.745 43.0578 155.745 43.0247 155.786 42.9752 155.811 42.9752 155.877 42.9669 155.91 43.0165 155.91 43.0743 155.91 43.5368 155.91 43.9994 155.91 44.4619 155.91 44.5032 155.902 44.5445 155.844 44.5528 155.769 44.5528 155.753 44.5115 155.745 44.4536 155.621 43.7929 155.133 43.7763 154.613 43.8259 154.506 43.8342 154.39 43.8342 154.274 43.8259 154.068 43.8094 153.952 43.9002 153.952 44.1067 153.952 44.7262 153.944 45.3457 153.977 45.9569 153.994 46.3286 154.316 46.469 154.63 46.502 155.034 46.5433 155.447 46.5433 155.852 46.502 156.282 46.4525 156.554 46.1551 156.736 45.7752 156.794 45.6513 156.835 45.5191 156.992 45.61 157.132 45.6926 157.108 45.8082 156.992 45.9074 156.984 45.9156 156.959 45.9239 156.959 45.9321 156.893 46.7994 156.298 46.7829 155.662 46.7333 155.315 46.7085 154.96 46.7333 154.613 46.7333Z" fill="#023047" transform="matrix(1.00611 0 0 1 506 832.117)"/><path d="M64.9955 46.7168C64.3925 46.7168 63.7896 46.7168 63.1866 46.7168 63.1123 46.7168 62.9966 46.7746 62.9884 46.6507 62.9884 46.5681 63.0875 46.5846 63.1536 46.5681 63.707 46.4112 63.7318 46.3864 63.7318 45.8 63.7318 44.5115 63.7318 43.2147 63.7318 41.9262 63.7318 41.5545 63.707 41.2324 63.2444 41.1663 63.2114 41.1663 63.1536 41.1167 63.1536 41.1002 63.1536 41.0011 63.2444 41.0176 63.3105 41.0176 63.7152 41.0176 64.1282 41.0176 64.5329 41.0176 65.1359 41.0176 65.7389 41.0176 66.3418 41.0176 66.7548 41.0176 66.8704 41.125 66.9035 41.538 66.9117 41.6536 66.9117 41.761 66.9035 41.8766 66.9035 41.9262 66.92 41.9923 66.8457 42.0088 66.7796 42.0253 66.7465 41.984 66.7218 41.9262 66.284 40.9598 65.4002 41.2489 64.6403 41.2076 64.4503 41.1993 64.376 41.3315 64.376 41.5132 64.376 42.1409 64.376 42.7769 64.376 43.4047 64.376 43.6277 64.4917 43.6938 64.6899 43.6855 64.8964 43.6772 65.1111 43.6855 65.3176 43.6855 65.8628 43.6855 65.9619 43.6112 66.1518 43.0908 66.1684 43.0412 66.1684 42.9752 66.2344 42.9752 66.317 42.9752 66.3088 43.0495 66.3088 43.0991 66.3088 43.5368 66.3088 43.9663 66.3088 44.4041 66.3088 44.4536 66.3088 44.528 66.2262 44.5115 66.2014 44.5115 66.1684 44.4536 66.1601 44.4206 66.0527 43.8755 65.6893 43.7351 65.1855 43.8011 65.0451 43.8176 64.9046 43.8176 64.7642 43.8011 64.4834 43.7681 64.3595 43.8672 64.3678 44.1728 64.3843 44.718 64.3678 45.2714 64.3678 45.8165 64.3678 46.1799 64.6486 46.469 65.0203 46.4855 65.425 46.502 65.838 46.5186 66.2427 46.4855 66.6805 46.4525 66.9696 46.1634 67.1265 45.7669 67.1926 45.61 67.2752 45.5026 67.4156 45.5687 67.5643 45.643 67.4156 45.7587 67.3743 45.8495 67.2586 46.1386 67.2752 46.5516 66.9861 46.6838 66.73 46.7994 66.3831 46.7085 66.0692 46.7085 65.7058 46.7085 65.3424 46.7085 64.9707 46.7085L64.9707 46.7085Z" fill="#023047" transform="matrix(1.00611 0 0 1 506 832.117)"/><path d="M116.288 46.7168C116.032 46.7168 115.784 46.7168 115.528 46.7168 115.462 46.7168 115.371 46.7416 115.355 46.6507 115.355 46.6342 115.462 46.5846 115.52 46.5599 115.933 46.3947 115.916 46.3782 115.751 45.9074 115.652 45.6348 115.545 45.354 115.479 45.0566 115.347 44.3958 115.14 44.3545 114.694 44.3958 114.388 44.4206 114.075 44.3958 113.769 44.3958 113.538 44.3958 113.364 44.5032 113.323 44.7675 113.257 45.1805 113.116 45.5604 112.951 45.9404 112.86 46.1469 112.753 46.4773 113.174 46.5516 113.232 46.5599 113.298 46.5764 113.298 46.6342 113.298 46.7168 113.224 46.7003 113.174 46.7003 112.753 46.7003 112.332 46.7003 111.911 46.7003 111.861 46.7003 111.787 46.7251 111.787 46.6425 111.787 46.6177 111.836 46.5846 111.869 46.5764 112.431 46.4938 112.547 46.0395 112.703 45.6017 113.034 44.7014 113.406 43.8094 113.752 42.9091 113.942 42.4052 114.124 41.9014 114.265 41.381 114.331 41.158 114.488 41.0754 114.644 40.9681 114.752 40.8937 114.843 40.935 114.867 41.1002 114.925 41.6536 115.214 42.1244 115.396 42.6365 115.57 43.1404 115.66 43.6772 115.875 44.1728 116.115 44.7014 116.139 45.2961 116.437 45.8082 116.619 46.1221 116.676 46.5599 117.172 46.5681 117.213 46.5681 117.246 46.6094 117.238 46.6507 117.23 46.7085 117.18 46.7003 117.139 46.7003 116.858 46.7003 116.577 46.7003 116.296 46.7003ZM114.339 44.1646 114.339 44.1646C114.521 44.1646 114.702 44.1646 114.884 44.1646 115.14 44.1646 115.157 44.0076 115.099 43.8342 114.917 43.2725 114.719 42.7108 114.529 42.1575 114.504 42.0914 114.521 42.017 114.421 42.017 114.314 42.017 114.298 42.0749 114.273 42.1657 114.149 42.6448 113.918 43.0825 113.802 43.5781 113.67 44.1893 113.612 44.1728 114.248 44.1728 114.273 44.1728 114.306 44.1728 114.331 44.1728Z" fill="#023047" transform="matrix(1.00611 0 0 1 506 832.117)"/><path d="M39.8282 46.7168C39.5639 46.7168 39.2913 46.7168 39.027 46.7168 38.9857 46.7168 38.9031 46.7581 38.8949 46.6672 38.8949 46.5929 38.9609 46.6012 39.0105 46.5846 39.4813 46.436 39.5309 46.3864 39.3657 45.9321 39.2087 45.4861 39.1592 45.007 38.8701 44.6106 38.8123 44.5362 38.804 44.4123 38.6801 44.4123 38.2176 44.4123 37.755 44.4041 37.2925 44.4206 37.1934 44.4206 37.0447 44.528 37.0117 44.6188 36.83 45.1144 36.5739 45.5935 36.5409 46.1386 36.5326 46.3699 36.5326 46.5681 36.8217 46.6012 36.863 46.6012 36.9538 46.5929 36.9208 46.6838 36.9208 46.7085 36.8547 46.7168 36.8134 46.7168 36.3922 46.7168 35.9709 46.7168 35.5497 46.7168 35.5001 46.7168 35.4258 46.7498 35.4175 46.6672 35.4093 46.5929 35.4671 46.5681 35.5167 46.5681 36.0453 46.5929 36.037 46.1056 36.2022 45.8165 36.6069 45.1227 36.8134 44.338 37.086 43.5946 37.3421 42.8678 37.7385 42.1657 37.8376 41.3728 37.8624 41.1745 38.0359 41.0589 38.2176 41.0011 38.325 40.9598 38.3745 41.0011 38.4241 41.1332 38.7545 42.0005 39.0105 42.8926 39.3161 43.7681 39.5474 44.4454 39.8117 45.1144 39.9852 45.8082 40.0843 46.1799 40.266 46.436 40.6211 46.5681 40.679 46.5929 40.7863 46.5764 40.7533 46.6838 40.7285 46.7746 40.6377 46.7333 40.5716 46.7333 40.3155 46.7333 40.0677 46.7333 39.8117 46.7333ZM37.9863 44.1646C38.2176 44.148 38.5314 44.2554 38.7297 44.082 38.8949 43.9415 38.6223 43.7516 38.581 43.5699 38.4819 43.0908 38.3002 42.6283 38.168 42.1575 38.135 42.0253 38.0441 42.017 37.9533 42.0005 37.8211 41.9757 37.8459 42.0914 37.8294 42.1657 37.7055 42.6613 37.5238 43.1321 37.2925 43.5864 37.0777 43.9994 37.1851 44.1563 37.6559 44.1563 37.755 44.1563 37.8542 44.1563 37.9863 44.1563Z" fill="#023047" transform="matrix(1.00611 0 0 1 506 832.117)"/><path d="M86.1898 46.7168C85.9338 46.7168 85.686 46.7168 85.43 46.7168 85.3804 46.7168 85.2978 46.692 85.2895 46.6672 85.273 46.5929 85.3556 46.5929 85.3969 46.5846 85.6777 46.5268 85.6777 46.3534 85.653 46.1138 85.6117 45.6596 85.4878 45.2218 85.3391 44.8006 85.2565 44.5775 85.1244 44.3545 84.794 44.3958 84.5214 44.4289 84.2323 44.4289 83.9515 44.3958 83.5798 44.3545 83.332 44.4619 83.2411 44.8336 83.142 45.2714 82.8282 45.6265 82.8034 46.0973 82.7869 46.3782 82.8282 46.5599 83.1503 46.5846 83.1916 46.5846 83.2742 46.5846 83.2659 46.659 83.2659 46.7333 83.1751 46.7085 83.1338 46.7085 82.729 46.7085 82.3161 46.7085 81.9113 46.7085 81.8618 46.7085 81.7957 46.7416 81.7709 46.6672 81.7461 46.6012 81.7957 46.5681 81.8535 46.5516 82.5143 46.4029 82.5308 45.7752 82.7373 45.3127 82.8942 44.9657 83.0099 44.5941 83.1751 44.2389 83.3981 43.7351 83.4642 43.1651 83.745 42.6778 83.9845 42.2648 84.001 41.7692 84.1827 41.3315 84.2653 41.125 84.4388 41.0094 84.6205 40.9763 84.8187 40.9433 84.7527 41.1745 84.794 41.2902 85.017 41.9014 85.2895 42.5044 85.4465 43.1321 85.5869 43.6607 85.719 44.1893 85.9503 44.6849 86.1486 45.1062 86.132 45.5935 86.3798 45.9982 86.5037 46.1882 86.6111 46.3864 86.8093 46.5103 86.9002 46.5681 87.1149 46.5186 87.0736 46.6755 87.0489 46.7746 86.8506 46.7085 86.735 46.7085 86.5533 46.7168 86.3716 46.7085 86.1898 46.7085L86.1898 46.7085ZM84.3066 44.1646 84.3066 44.1646C84.4718 44.1646 84.6453 44.1646 84.8105 44.1646 85.1244 44.148 85.1244 44.0407 85.0252 43.7516 84.86 43.2477 84.5462 42.7934 84.5214 42.2483 84.5214 42.1409 84.5214 42.0253 84.3562 42.0088 84.224 42.0088 84.2075 42.0831 84.1662 42.174 83.935 42.6778 83.8524 43.223 83.6128 43.7268 83.4394 44.0985 83.522 44.1563 83.9597 44.1646 84.0754 44.1646 84.1827 44.1646 84.2984 44.1646Z" fill="#023047" transform="matrix(1.00611 0 0 1 506 832.117)"/><path d="M181.358 46.7168C181.052 46.7168 180.739 46.7168 180.433 46.7168 180.392 46.7168 180.309 46.7498 180.301 46.659 180.301 46.5846 180.367 46.5764 180.416 46.5764 180.862 46.5764 180.953 46.279 180.953 45.9074 180.953 45.4861 180.953 45.0649 180.953 44.6436 180.953 44.2141 180.739 43.8755 180.532 43.512 180.243 42.9999 180.003 42.4465 179.739 41.9179 179.574 41.5793 179.392 41.2902 179.02 41.1745 178.971 41.158 178.905 41.1663 178.905 41.0837 178.905 41.0094 178.979 41.0094 179.029 41.0094 179.516 41.0094 180.012 41.0094 180.499 41.0094 180.54 41.0094 180.623 40.9928 180.623 41.0754 180.623 41.1002 180.573 41.1332 180.54 41.1415 180.028 41.2489 180.259 41.6453 180.367 41.8271 180.714 42.4052 180.928 43.0412 181.259 43.6277 181.374 43.8342 181.564 43.8424 181.688 43.6194 182.077 42.9256 182.457 42.2235 182.82 41.5215 182.911 41.3397 182.779 41.2406 182.622 41.1745 182.564 41.1498 182.448 41.1745 182.465 41.0837 182.481 40.9681 182.597 41.0094 182.671 41.0094 183.018 41.0094 183.373 41.0094 183.72 41.0094 183.77 41.0094 183.836 40.9928 183.852 41.0754 183.861 41.1498 183.803 41.1498 183.753 41.1745 183.126 41.4884 182.87 42.0666 182.572 42.6613 182.333 43.1404 182.019 43.5946 181.771 44.082 181.697 44.2306 181.68 44.371 181.672 44.5115 181.655 44.9575 181.655 45.4118 181.672 45.8578 181.672 46.3947 181.721 46.436 182.258 46.5681 182.316 46.5846 182.423 46.5516 182.407 46.6507 182.399 46.7498 182.291 46.7003 182.234 46.7003 181.936 46.7003 181.647 46.7003 181.35 46.7003L181.35 46.7003Z" fill="#023047" transform="matrix(1.00611 0 0 1 506 832.117)"/><path d="M89.9232 46.7168C89.6259 46.7168 89.3368 46.7168 89.0394 46.7168 88.9816 46.7168 88.9238 46.7168 88.9321 46.6425 88.9321 46.6177 88.9899 46.5764 89.0229 46.5764 89.6837 46.5929 89.5846 46.1221 89.5846 45.7091 89.5846 44.3463 89.5763 42.9834 89.5846 41.6206 89.5846 41.2902 89.4937 41.1828 89.1551 41.1911 88.5108 41.2076 87.8913 41.2241 87.5362 41.8849 87.5197 41.9097 87.4701 41.9344 87.4371 41.9344 87.3627 41.9344 87.3627 41.8684 87.3627 41.8105 87.3462 41.5132 87.5692 41.2654 87.5692 40.9681 87.5692 40.8607 87.7096 40.8937 87.7757 40.9185 88.1391 41.0672 88.5191 41.0011 88.899 41.0011 89.948 41.0094 91.0052 41.0011 92.0542 41.0094 92.2607 41.0094 92.5003 40.8194 92.6407 40.9598 92.7728 41.0919 92.459 41.2737 92.5333 41.4802 92.5498 41.5215 92.5333 41.5628 92.5333 41.604 92.5168 41.7197 92.5828 41.9262 92.492 41.9427 92.3846 41.9592 92.4507 41.7527 92.3846 41.6701 92.112 41.315 91.6908 41.2158 91.3026 41.2076 90.138 41.1745 90.328 41.0589 90.3197 42.1244 90.3114 43.3716 90.328 44.6271 90.3114 45.8743 90.3114 46.279 90.4436 46.502 90.8401 46.5681 90.9061 46.5764 90.964 46.6177 91.0218 46.6425 90.9722 46.7416 90.8814 46.7085 90.807 46.7085 90.5097 46.7085 90.2206 46.7085 89.9232 46.7085Z" fill="#023047" transform="matrix(1.00611 0 0 1 506 832.117)"/><path d="M175.518 43.7929C175.518 44.4702 175.518 45.1392 175.518 45.8165 175.518 46.3864 175.551 46.4194 176.097 46.5764 176.154 46.5929 176.253 46.5599 176.229 46.6755 176.229 46.7003 176.138 46.7085 176.088 46.7168 175.485 46.7168 174.882 46.7168 174.279 46.7168 174.222 46.7168 174.122 46.7498 174.122 46.6507 174.122 46.5599 174.222 46.5681 174.288 46.5681 174.684 46.5681 174.8 46.3203 174.8 45.9734 174.8 44.5115 174.8 43.0578 174.8 41.5958 174.8 41.3232 174.717 41.1663 174.412 41.2076 174.089 41.2489 173.767 41.1993 173.437 41.315 173.107 41.4306 172.925 41.6371 172.743 41.8849 172.71 41.9262 172.702 41.9923 172.627 41.9675 172.553 41.951 172.561 41.8849 172.561 41.8353 172.545 41.538 172.793 41.3067 172.76 41.0011 172.76 40.9185 172.859 40.9102 172.925 40.9268 173.602 41.1167 174.288 40.9928 174.973 41.0176 175.7 41.0424 176.435 41.0094 177.162 41.0341 177.402 41.0341 177.674 40.8276 177.831 40.9763 177.996 41.125 177.674 41.3645 177.74 41.5958 177.74 41.6206 177.74 41.6536 177.74 41.6784 177.715 41.794 177.798 41.984 177.649 42.0005 177.468 42.017 177.567 41.8105 177.517 41.7032 177.327 41.315 176.939 41.2984 176.6 41.2241 176.41 41.1828 176.212 41.2158 176.014 41.2241 175.518 41.2241 175.51 41.2324 175.51 41.7114 175.51 42.4135 175.51 43.1156 175.51 43.8176Z" fill="#023047" transform="matrix(1.00611 0 0 1 506 832.117)"/><path d="M46.1056 43.2808C46.1056 42.5952 46.1056 41.9014 46.1056 41.2158 46.1056 40.4807 46.056 40.4147 45.3622 40.1834 45.3044 40.1669 45.2053 40.1834 45.2053 40.0843 45.2053 39.9769 45.3044 40.0099 45.3622 40.0099 46.0395 40.0099 46.7085 40.0099 47.3858 40.0099 47.4519 40.0099 47.5428 39.9934 47.5593 40.0843 47.5675 40.1669 47.485 40.1916 47.4189 40.2082 46.7829 40.4064 46.7664 40.9102 46.7746 41.4554 46.7911 42.7852 46.7746 44.1233 46.7746 45.4613 46.7746 46.1964 46.8077 46.2377 47.518 46.5268 47.5675 46.5433 47.6336 46.5846 47.6419 46.6259 47.6501 46.7251 47.551 46.7168 47.4932 46.7168 46.7746 46.7168 46.0643 46.7168 45.3457 46.7168 45.2879 46.7168 45.197 46.7333 45.2053 46.6259 45.2053 46.5351 45.2961 46.5351 45.354 46.5186 45.9734 46.3699 46.1056 46.2047 46.1056 45.5604 46.1056 44.8006 46.1056 44.0407 46.1056 43.289Z" fill="#023047" transform="matrix(1.00611 0 0 1 506 832.117)"/><path d="M120.236 46.7168C119.65 46.7168 119.055 46.7168 118.469 46.7168 118.411 46.7168 118.304 46.7581 118.295 46.659 118.287 46.5681 118.386 46.5599 118.444 46.5599 118.873 46.5599 118.923 46.2625 118.923 45.9321 118.923 44.5445 118.923 43.1569 118.923 41.7692 118.923 41.4306 118.857 41.1498 118.419 41.1663 118.37 41.1663 118.287 41.1663 118.287 41.1002 118.287 40.9928 118.386 41.0176 118.444 41.0176 118.989 41.0176 119.534 41.0176 120.088 41.0176 120.137 41.0176 120.22 41.0341 120.228 41.0672 120.261 41.1745 120.154 41.158 120.096 41.1663 119.782 41.2324 119.658 41.4058 119.65 41.7362 119.625 43.0825 119.617 44.4289 119.65 45.7752 119.666 46.1964 119.922 46.4773 120.344 46.4938 120.6 46.502 120.848 46.4855 121.104 46.502 121.698 46.5516 122.062 46.2708 122.26 45.7339 122.285 45.6678 122.268 45.5357 122.4 45.5852 122.483 45.61 122.458 45.7009 122.458 45.7669 122.442 46.0725 122.268 46.3369 122.202 46.6342 122.169 46.7829 122.012 46.7168 121.913 46.7251 121.351 46.7251 120.79 46.7251 120.228 46.7251L120.228 46.7251Z" fill="#023047" transform="matrix(1.00611 0 0 1 506 832.117)"/><path d="M146.7 41.0176C146.94 41.0176 147.179 41.0176 147.419 41.0176 147.468 41.0176 147.535 41.0011 147.559 41.0754 147.584 41.158 147.518 41.1663 147.468 41.1745 147.122 41.2324 147.047 41.381 147.212 41.7197 147.568 42.4383 147.758 43.223 148.096 43.9498 148.303 44.3958 148.443 44.8749 148.699 45.3044 148.732 45.3622 148.691 45.4944 148.831 45.4696 148.93 45.4531 148.955 45.3787 148.988 45.2961 149.178 44.8088 149.352 44.3215 149.583 43.8507 149.872 43.2725 150.004 42.6365 150.326 42.0666 150.359 42.0088 150.351 41.9262 150.384 41.8684 150.599 41.3976 150.599 41.3976 150.153 41.1663 150.112 41.1415 150.037 41.158 150.046 41.0754 150.054 40.9928 150.128 41.0176 150.178 41.0176 150.615 41.0176 151.045 41.0176 151.483 41.0176 151.516 41.0176 151.565 41.0424 151.574 41.0672 151.598 41.1167 151.549 41.1415 151.507 41.1498 150.896 41.2654 150.814 41.8271 150.582 42.2483 150.202 42.9339 149.971 43.6855 149.616 44.3876 149.426 44.751 149.319 45.1475 149.17 45.5274 149.038 45.8826 148.798 46.1882 148.757 46.5846 148.749 46.6672 148.724 46.7498 148.6 46.7333 148.517 46.7168 148.443 46.7085 148.427 46.6012 148.261 45.7422 147.824 44.974 147.518 44.1646 147.27 43.5038 147.072 42.8017 146.692 42.1822 146.56 41.9592 146.618 41.6371 146.378 41.4471 146.287 41.3728 146.196 41.2902 146.106 41.2158 146.023 41.1498 145.817 41.2158 145.833 41.0919 145.858 40.9598 146.04 41.0259 146.155 41.0176 146.337 41.0094 146.519 41.0176 146.7 41.0176L146.7 41.0176Z" fill="#023047" transform="matrix(1.00611 0 0 1 506 832.117)"/><path d="M165.83 46.7498C165.673 46.7498 165.524 46.7498 165.367 46.7498 164.591 46.7498 164.459 46.2543 164.417 45.6265 164.417 45.5604 164.401 45.4696 164.5 45.4613 164.583 45.4613 164.607 45.5357 164.632 45.6017 165.012 46.4525 165.549 46.7168 166.458 46.5599 166.796 46.502 166.912 46.2295 167.011 45.9899 167.25 45.3705 166.904 44.7097 166.35 44.338 165.846 43.9994 165.309 43.7185 164.929 43.1734 164.277 42.2566 164.963 41.1085 165.846 40.9681 166.259 40.902 166.681 40.902 167.102 40.9928 167.457 41.0672 167.746 41.604 167.606 41.9344 167.589 41.9675 167.556 42.0005 167.523 42.0005 167.465 42.0005 167.416 41.9675 167.407 41.9014 167.308 41.4884 166.978 41.315 166.639 41.158 166.16 40.9433 165.78 41.0589 165.417 41.5215 165.161 41.8436 165.186 42.3061 165.442 42.6778 165.772 43.1734 166.317 43.3881 166.78 43.6938 167.482 44.1563 167.878 45.0731 167.614 45.8495 167.457 46.3203 166.904 46.7251 166.391 46.7416 166.21 46.7416 166.028 46.7416 165.846 46.7416Z" fill="#023047" transform="matrix(1.00611 0 0 1 506 832.117)"/><path d="M59.4119 43.7846C59.4119 44.4867 59.4202 45.1888 59.4119 45.8908 59.4037 46.2873 59.5771 46.4938 59.9488 46.5764 60.0149 46.5929 60.1553 46.5516 60.1305 46.6755 60.114 46.7746 59.9901 46.7168 59.9158 46.7168 59.3376 46.7168 58.7677 46.7168 58.1895 46.7168 58.1317 46.7168 58.0326 46.7664 58.0243 46.659 58.0161 46.5599 58.1152 46.5846 58.173 46.5681 58.619 46.4442 58.8007 46.213 58.8007 45.7339 58.8007 44.371 58.8007 43.0082 58.8007 41.6536 58.8007 41.3563 58.6438 41.2076 58.3464 41.2076 57.95 41.2076 57.5452 41.1663 57.1653 41.3563 56.9258 41.4719 56.7606 41.6536 56.6367 41.8766 56.6036 41.9427 56.5789 42.017 56.4963 41.9757 56.4632 41.9592 56.455 41.8766 56.455 41.8271 56.455 41.538 56.678 41.3067 56.6615 41.0011 56.6615 40.935 56.7936 40.902 56.8762 40.935 57.3305 41.0919 57.793 41.0259 58.2556 41.0094 59.3706 40.9846 60.494 41.1167 61.609 40.9268 61.7742 40.902 61.7577 40.9846 61.7659 41.0837 61.799 41.381 61.5925 41.6371 61.6008 41.9344 61.6008 41.9592 61.5512 42.0005 61.5182 42.0005 61.4934 42.0005 61.4438 41.951 61.4438 41.9262 61.4438 41.2902 60.8987 41.2406 60.527 41.2241 59.2302 41.1663 59.4119 41.0672 59.4119 42.2235 59.4119 42.7439 59.4119 43.2643 59.4119 43.7846Z" fill="#023047" transform="matrix(1.00611 0 0 1 506 832.117)"/><path d="M8.0119 46.7168C7.43372 46.7168 6.8638 46.7168 6.28562 46.7168 6.22781 46.7168 6.12869 46.7664 6.12043 46.659 6.11217 46.5599 6.21129 46.5681 6.2691 46.5681 6.69861 46.5351 6.75643 46.2295 6.75643 45.8991 6.75643 44.5362 6.75643 43.1734 6.75643 41.8105 6.75643 41.4636 6.66557 41.1663 6.22781 41.1663 6.17825 41.1663 6.10391 41.1663 6.11217 41.0837 6.12043 41.0011 6.19477 41.0259 6.24432 41.0259 6.80598 41.0259 7.36764 41.0259 7.9293 41.0259 7.97886 41.0259 8.0532 41.0011 8.06972 41.0754 8.08624 41.158 8.0119 41.1498 7.96234 41.158 7.50806 41.2406 7.3759 41.5545 7.3759 41.9592 7.3759 43.1238 7.34286 44.2884 7.3759 45.4531 7.40068 46.0891 7.65673 46.5599 8.43314 46.502 8.59834 46.4938 8.77179 46.4773 8.93698 46.502 9.55646 46.5929 9.83729 46.2047 10.0851 45.7422 10.1181 45.6761 10.0933 45.5439 10.2172 45.5687 10.3659 45.5935 10.2751 45.7256 10.2916 45.8082 10.3081 45.9239 10.1677 45.9404 10.1512 46.0478 10.1099 46.2708 10.2007 46.5846 9.95292 46.6838 9.74643 46.7664 9.48212 46.7085 9.24259 46.7085 8.83787 46.7085 8.42488 46.7085 8.02016 46.7085Z" fill="#023047" transform="matrix(1.00611 0 0 1 506 832.117)"/><path d="M26.0263 46.7168C25.8693 46.7168 25.7124 46.7333 25.5637 46.7168 25.382 46.7003 25.1838 46.7911 25.0103 46.6507 25.159 46.5929 25.3325 46.5599 25.4646 46.4773 25.6463 46.3534 25.7207 46.1634 25.7207 45.9239 25.7124 44.5775 25.7042 43.2312 25.7207 41.8766 25.7207 41.4389 25.5307 41.2489 25.1508 41.158 25.1012 41.1498 25.0103 41.1167 25.0103 41.1002 25.0103 41.0011 25.1095 41.0176 25.1673 41.0176 25.7454 41.0176 26.3154 41.0176 26.8935 41.0176 26.9431 41.0176 27.0174 40.9928 27.0257 41.0754 27.0422 41.1911 26.9348 41.1663 26.877 41.1663 26.5136 41.1663 26.4393 41.3976 26.4393 41.6949 26.4393 43.1404 26.4393 44.5858 26.4393 46.0312 26.4393 46.3369 26.5219 46.5433 26.8688 46.5516 26.9266 46.5516 27.0257 46.5516 27.0257 46.6507 27.0257 46.7581 26.9266 46.7168 26.8605 46.7168 26.5797 46.7168 26.2988 46.7168 26.018 46.7168L26.018 46.7168Z" fill="#023047" transform="matrix(1.00611 0 0 1 506 832.117)"/><path d="M170.587 43.8342C170.587 44.4123 170.604 44.9823 170.587 45.5604 170.571 45.8495 170.711 46.0891 170.761 46.3616 170.802 46.5846 171.033 46.502 171.166 46.5764 171.207 46.6012 171.289 46.5929 171.281 46.6672 171.273 46.7581 171.19 46.7168 171.149 46.7168 170.571 46.7168 170.001 46.7168 169.423 46.7168 169.373 46.7168 169.291 46.692 169.282 46.6755 169.266 46.5681 169.373 46.5929 169.423 46.5764 169.852 46.4855 169.984 46.1882 169.984 45.7835 169.984 44.4784 169.984 43.1734 169.984 41.8766 169.984 41.4967 169.794 41.2737 169.406 41.1663 169.357 41.1498 169.266 41.125 169.266 41.1085 169.266 41.0094 169.365 41.0259 169.423 41.0259 170.001 41.0259 170.571 41.0259 171.149 41.0259 171.199 41.0259 171.273 41.0424 171.289 41.0754 171.322 41.158 171.24 41.1498 171.19 41.1663 170.761 41.2902 170.604 41.4884 170.604 41.9427 170.596 42.5704 170.604 43.2064 170.604 43.8342Z" fill="#023047" transform="matrix(1.00611 0 0 1 506 832.117)"/><path d="M94.6478 43.9168C94.6478 43.289 94.6478 42.653 94.6478 42.0253 94.6478 41.4306 94.6147 41.3976 94.0696 41.1663 94.02 41.1498 93.9374 41.1167 93.9374 41.1002 93.9374 41.0259 94.02 41.0341 94.0696 41.0341 94.6312 41.0341 95.1929 41.0259 95.7546 41.0341 95.8041 41.0341 95.8785 41.0094 95.8867 41.0919 95.895 41.1745 95.8289 41.1745 95.7794 41.1745 95.3994 41.2076 95.2838 41.4389 95.2755 41.7858 95.2342 43.1486 95.2425 44.5115 95.2755 45.8661 95.2755 46.2047 95.3333 46.5103 95.7628 46.5433 95.8206 46.5433 95.9115 46.5764 95.8867 46.6755 95.8702 46.7581 95.7959 46.7168 95.7463 46.7168 95.2094 46.7168 94.6808 46.7168 94.1439 46.7168 94.0779 46.7168 93.9953 46.7333 93.9705 46.6425 93.9705 46.6259 94.0531 46.5681 94.1026 46.5681 94.6065 46.4938 94.6726 46.1469 94.656 45.7339 94.6395 45.1309 94.656 44.528 94.656 43.925Z" fill="#023047" transform="matrix(1.00611 0 0 1 506 832.117)"/><path d="M143.876 43.8755C143.876 44.4784 143.876 45.0814 143.876 45.6843 143.876 46.2212 143.975 46.3699 144.47 46.5599 144.52 46.5764 144.586 46.5846 144.578 46.659 144.578 46.7416 144.495 46.7168 144.454 46.7168 143.892 46.7168 143.33 46.7168 142.769 46.7168 142.719 46.7168 142.645 46.7416 142.637 46.659 142.628 46.5846 142.686 46.5599 142.744 46.5599 143.289 46.5351 143.264 46.1551 143.264 45.7669 143.264 44.4619 143.264 43.1569 143.264 41.8601 143.264 41.4884 143.206 41.1911 142.752 41.1663 142.703 41.1663 142.628 41.1663 142.637 41.0837 142.637 41.0011 142.719 41.0176 142.769 41.0176 143.33 41.0176 143.892 41.0176 144.454 41.0176 144.503 41.0176 144.578 40.9928 144.586 41.0754 144.602 41.158 144.528 41.1498 144.478 41.1663 144.016 41.315 143.884 41.4967 143.884 41.984 143.884 42.6117 143.884 43.2477 143.884 43.8755Z" fill="#023047" transform="matrix(1.00611 0 0 1 506 832.117)"/><path d="M147.873 20.6162C147.24 20.6162 146.923 20.2968 146.923 19.6581 146.923 19.2176 147.141 18.9973 147.576 18.9973 147.898 18.9973 148.22 19.0138 148.542 18.9973 148.79 18.9808 148.848 19.0799 148.84 19.3112 148.823 19.6498 148.815 19.9802 148.84 20.3188 148.864 20.5997 148.74 20.6575 148.501 20.6327 148.294 20.6162 148.08 20.6327 147.873 20.6327Z" fill="#023047" transform="matrix(1.00611 0 0 1 506 832.117)"/></g></svg>